<?xml version="1.0" encoding="UTF-8" standalone="no"?>
<!-- Created with Inkscape (http://www.inkscape.org/) -->

<svg
   xmlns:dc="http://purl.org/dc/elements/1.1/"
   xmlns:cc="http://creativecommons.org/ns#"
   xmlns:rdf="http://www.w3.org/1999/02/22-rdf-syntax-ns#"
   xmlns:svg="http://www.w3.org/2000/svg"
   xmlns="http://www.w3.org/2000/svg"
   xmlns:sodipodi="http://sodipodi.sourceforge.net/DTD/sodipodi-0.dtd"
   xmlns:inkscape="http://www.inkscape.org/namespaces/inkscape"
   width="3163"
   height="1694"
   id="svg3503"
   version="1.1"
   inkscape:version="0.48.5 r10040"
   inkscape:export-filename="/home/miguelnarvaez/Imágenes/svg/iws2/imagen/logoiws.png"
   inkscape:export-xdpi="90"
   inkscape:export-ydpi="90"
   sodipodi:docname="logoiws_svg2.svg">
  <defs
     id="defs3505" />
  <sodipodi:namedview
     id="base"
     pagecolor="#ffffff"
     bordercolor="#ffffff"
     borderopacity="0"
     inkscape:pageopacity="0.0"
     inkscape:pageshadow="0"
     inkscape:zoom="0.24748737"
     inkscape:cx="1506.4457"
     inkscape:cy="850.51675"
     inkscape:document-units="px"
     inkscape:current-layer="layer1"
     showgrid="false"
     inkscape:window-width="1360"
     inkscape:window-height="702"
     inkscape:window-x="0"
     inkscape:window-y="27"
     inkscape:window-maximized="1"
     showborder="false"
     inkscape:showpageshadow="true" />
  <metadata
     id="metadata3508">
    <rdf:RDF>
      <cc:Work
         rdf:about="">
        <dc:format>image/svg+xml</dc:format>
        <dc:type
           rdf:resource="http://purl.org/dc/dcmitype/StillImage" />
        <dc:title></dc:title>
      </cc:Work>
    </rdf:RDF>
  </metadata>
  <g
     inkscape:label="Layer 1"
     inkscape:groupmode="layer"
     id="layer1"
     transform="translate(0,641.63782)">
    <g
       id="g3082"
       inkscape:export-filename="/home/miguelnarvaez/Imágenes/svg/iws2/imagen/logoiws_png_selec.png"
       inkscape:export-xdpi="90"
       inkscape:export-ydpi="90"
       transform="translate(1305.5739,-600.22346)">
      <path
         style="fill:#007dc7;fill-opacity:1;stroke:#007dc7;stroke-width:12.52577305;stroke-linecap:butt;stroke-linejoin:miter;stroke-miterlimit:4;stroke-opacity:1;stroke-dasharray:none"
         d="M -1008.3047,693.54482 H 549.22416"
         id="path4647"
         inkscape:connector-curvature="0" />
      <path
         inkscape:connector-curvature="0"
         id="path4747"
         style="font-size:33.33333206px;font-style:normal;font-variant:normal;font-weight:normal;font-stretch:normal;text-align:start;line-height:0.55000001;letter-spacing:0px;word-spacing:0px;text-anchor:start;fill:#4d4d4d;fill-opacity:1;stroke:none;font-family:Quattrocento;-inkscape-font-specification:Quattrocento"
         d="m -887.96942,285.37692 -1.44038,8.64 -1.91911,1.92001 q -7.67999,0 -14.88,0.95999 -6.72001,0.48001 -11.0401,3.84 -3.83989,3.36 -7.2,8.64 -3.35991,5.27999 -4.31988,18.72001 -0.48082,6.72 -0.95956,12.48 0,5.75998 -0.48082,13.43999 0,7.67999 0,18.71999 0,11.04 0,28.32001 v 88.31999 q 0,17.28001 0,28.32001 0,10.55999 0,17.76 0.48082,7.2 0.48082,12.48 0.48082,4.80001 0.95956,10.55999 0.95956,13.44001 4.31988,18.72001 3.36011,5.27999 7.2,8.64 4.32009,3.35999 11.0401,4.32 7.20001,0.47999 14.88,0.47999 l 1.91911,1.91995 1.44038,8.64 -0.95956,1.91995 q -3.3599,0 -11.03989,-0.47999 -7.67999,-0.47999 -15.83997,-0.95997 -8.16019,-0.47999 -15.84018,-0.95998 -7.67999,-0.47998 -11.03989,-0.47998 h -9.11995 q -3.36011,0 -11.0401,0.47998 -7.67999,0.47999 -15.83997,0.95998 -8.15998,0.47998 -15.83997,0.95997 -7.68,0.47999 -11.0401,0.47999 l -0.9596,-1.91995 1.4404,-8.64 2.4002,-1.91995 q 7.67995,0 14.39997,-0.47999 6.72001,-0.95997 11.03989,-4.32 3.8401,-3.36001 7.20001,-8.64 3.84009,-5.28 4.80007,-18.72001 0,-3.35999 0,-7.67999 0.48082,-4.80001 0.48082,-11.52001 0.48082,-6.72 0.48082,-16.31999 0,-9.6 0,-24.00001 v -97.43998 q 0,-16.80001 0,-28.32001 0,-11.52001 -0.48082,-19.68 0,-8.16 -0.48082,-13.92001 0,-5.76 -0.48082,-11.51998 -0.95956,-12.48 -4.32009,-18.24001 -3.3599,-5.76 -7.2,-9.12 -4.31988,-3.36 -11.0399,-3.84 -6.72001,-0.95999 -14.40003,-0.95999 l -2.4001,-1.92001 -1.4404,-8.64 0.9596,-1.92 q 3.3601,0 11.04007,0.48 7.67999,0.48001 15.83997,0.96 8.15997,0.48 15.83996,0.95999 7.67999,0.48001 11.04011,0.48001 h 9.11995 q 3.3599,0 11.03989,-0.48001 7.67999,-0.48001 15.84018,-0.95999 8.15997,-0.48001 15.83996,-0.96 7.67999,-0.48 11.0399,-0.48 z" />
      <path
         inkscape:connector-curvature="0"
         id="path4749"
         style="font-size:33.33333206px;font-style:normal;font-variant:normal;font-weight:normal;font-stretch:normal;text-align:start;line-height:0.55000001;letter-spacing:0px;word-spacing:0px;text-anchor:start;fill:#4d4d4d;fill-opacity:1;stroke:none;font-family:Quattrocento;-inkscape-font-specification:Quattrocento"
         d="m -781.41682,420.73692 q 12.48007,-20.63999 32.15992,-34.55999 19.68007,-13.92 48.96007,-13.92 13.44004,0 26.88007,3.83999 13.43983,3.84 24.47993,11.99999 11.51988,8.16 18.71989,21.12001 7.67999,12.48 10.08013,29.76001 1.44037,12.48 1.44037,26.4 0.48082,13.92 0.48082,27.83998 0,17.28001 0,35.04 0.48082,17.28001 0.48082,34.56 0.95956,11.04 2.39993,16.32002 1.44038,4.79998 4.32009,7.19998 4.32008,3.84001 11.52009,4.80001 7.67999,0.47998 15.35998,0.47998 l 1.44037,1.91995 0.95956,6.72 -0.95956,1.91994 q -8.15997,-0.95997 -18.2401,-1.43996 -10.07993,-0.47998 -19.67986,-0.47998 -18.24011,0 -33.1201,1.43996 l -3.35991,-4.79999 q 1.91912,-6.24001 2.87992,-16.32002 0.95956,-10.07998 1.44038,-17.75999 0.95955,-20.15999 1.44037,-39.35999 0.48082,-19.68 0.48082,-32.64001 0,-11.04 -0.95956,-23.99999 -0.48081,-12.96 -2.87991,-22.56 -4.80008,-22.56001 -19.68007,-33.60001 -14.87999,-11.03999 -34.55985,-11.03999 -15.83997,0 -29.75999,6.71999 -13.44004,6.72 -23.03997,16.8 -9.60015,9.6 -15.36019,20.64 -5.27985,10.56001 -5.27985,18.24 v 54.24001 q 0,10.55999 0,17.27998 0,6.72002 0,11.52001 0.48082,4.80001 0.95956,9.12001 0.48081,3.84 0.95955,8.63999 0.95956,10.08 1.91912,15.36 1.44037,4.80001 5.28005,8.15999 3.83989,3.36001 10.55991,4.32001 7.20001,0.95997 14.40001,0.95997 l 2.40014,2.39999 0.95956,6.23999 -0.95956,1.91995 q -3.36011,0 -10.08013,-0.47999 -6.72002,-0.47998 -14.40001,-0.95997 -7.67999,0 -14.40001,-0.47999 -6.72001,0 -10.07992,0 h -6.72002 q -3.3599,0 -10.5599,0 -6.72002,0.47999 -14.40001,0.47999 -7.20001,0.47999 -14.40001,0.95997 -6.72002,0.47999 -10.08013,0.47999 l -0.48082,-1.91995 0.48082,-6.71999 1.92119,-1.91995 q 7.67999,0 14.88,-0.47998 7.67999,-0.95998 11.51988,-4.80001 3.8401,-3.35999 4.80007,-8.63999 1.44038,-5.28002 2.39993,-14.88001 0.48082,-7.67999 0.95956,-15.36 0.48082,-8.16 0.48082,-25.43999 v -59.04001 q 0,-10.07999 0,-16.8 0,-7.19999 -0.48082,-12.48 0,-5.28 -0.48082,-9.6 0,-4.32 -0.48082,-9.11999 -0.95955,-5.28 -2.87992,-9.11999 -1.91911,-4.32001 -3.36011,-5.76001 -4.79986,-5.76 -11.99987,-6.71999 -7.2,-1.43996 -14.87999,-1.43996 l -1.92119,-1.91995 v -6.72002 l 1.92119,-1.43995 h 8.63996 q 8.15998,0 20.64004,0 12.47986,-0.47999 21.60001,-1.91995 l 16.79994,-2.39999 2.87992,4.32 q -2.39993,6.23999 -3.3599,17.27999 -0.95956,10.56001 -1.44038,20.63999 z" />
      <path
         inkscape:connector-curvature="0"
         id="path4751"
         style="font-size:33.33333206px;font-style:normal;font-variant:normal;font-weight:normal;font-stretch:normal;text-align:start;line-height:0.55000001;letter-spacing:0px;word-spacing:0px;text-anchor:start;fill:#4d4d4d;fill-opacity:1;stroke:none;font-family:Quattrocento;-inkscape-font-specification:Quattrocento"
         d="m -432.27689,402.01691 h -62.39989 q 0,31.20001 -0.48082,57.60001 0,26.4 0,46.55999 0,19.68001 -0.48082,31.68 0,12.00001 0,14.88002 0,18.71998 7.1998,24.95999 7.2,6.23999 16.80014,6.23999 8.15998,0 18.71989,-2.88 11.0401,-3.35999 17.76012,-7.2 l 4.31988,3.36001 -4.31988,13.43999 q -11.0401,7.68001 -24.96013,11.04 -13.43982,3.84 -23.99994,3.84 -24.47993,0 -34.56006,-13.44 -10.07992,-13.43999 -10.07992,-34.56 0,-4.32 0.48082,-17.75999 0.48082,-13.44 0.95955,-33.60001 0.48082,-20.15999 0.95956,-46.55999 0.48082,-26.4 0.48082,-57.60001 h -34.55985 l -1.91912,-2.39999 v -9.11999 l 1.91912,-1.91995 34.55985,-6.71999 q 0,-16.80001 -0.95956,-34.08002 -0.48082,-17.75999 -1.44037,-34.55999 l 3.36011,-2.88 6.71981,-0.48 q 3.8401,-0.48001 12.48006,-1.92001 8.63997,-1.44 12.00008,-3.36 l 4.31988,1.92001 q -1.44038,6.72 -2.39994,15.84001 -0.95955,8.64 -1.91911,18.71999 -0.48082,10.08 -0.95956,20.63999 0,10.56002 0,20.16002 l 62.3999,-2.88001 2.39993,1.91995 v 18.71999 z" />
      <path
         inkscape:connector-curvature="0"
         id="path4753"
         style="font-size:33.33333206px;font-style:normal;font-variant:normal;font-weight:normal;font-stretch:normal;text-align:start;line-height:0.55000001;letter-spacing:0px;word-spacing:0px;text-anchor:start;fill:#4d4d4d;fill-opacity:1;stroke:none;font-family:Quattrocento;-inkscape-font-specification:Quattrocento"
         d="m -187.39433,471.13691 -7.67999,3.36001 q -25.9201,0 -53.28015,0.47998 -27.35985,0.47999 -53.75993,0.47999 h -56.64006 q -0.48082,3.36001 -0.48082,6.72 0,2.88 0,5.76 0,18.24 5.28006,35.04001 5.28005,16.31999 16.31995,28.79999 11.52009,12.48 29.28,20.16001 17.76012,7.2 43.20002,7.2 14.88,0 31.68015,-2.88 17.27992,-3.36001 31.67993,-11.52 l 4.79986,2.88 v 8.64 l -4.79986,5.28 q -11.52009,9.11999 -32.64011,16.8 -21.11982,7.19998 -47.03992,7.19998 -25.4399,0 -46.55993,-8.15999 -20.64004,-8.63999 -36.00002,-23.99999 -14.87999,-15.36 -23.51995,-36.48 -8.16019,-21.12001 -8.16019,-47.04 0,-26.4 8.64017,-47.99999 8.63997,-21.60001 23.51996,-36.96002 15.35998,-15.36 35.52003,-23.99998 20.63983,-8.64001 44.16,-8.64001 12.47985,0 27.83983,3.35999 15.84018,3.36001 30.24019,12.96001 14.4,9.11999 25.91989,26.4 11.52009,16.8 15.83996,44.64 z m -95.99998,-77.27999 q -15.35998,0 -27.84004,5.27999 -12.00008,4.80001 -21.60002,13.44002 -9.11995,8.15999 -15.35998,19.67998 -5.76004,11.04002 -8.15997,23.52002 h 18.71988 q 25.9201,0 50.40003,-0.47999 24.48014,-0.95997 51.36,-2.39999 6.24003,-0.47999 8.15998,-3.36001 2.40014,-2.88 2.40014,-6.72 0,-2.88 -0.48082,-5.27999 -0.48082,-2.40002 -1.44038,-4.80001 -5.27985,-18.24001 -19.67986,-28.31999 -14.4,-10.56001 -36.48,-10.56001 z" />
      <path
         inkscape:connector-curvature="0"
         id="path4755"
         style="font-size:33.33333206px;font-style:normal;font-variant:normal;font-weight:normal;font-stretch:normal;text-align:start;line-height:0.55000001;letter-spacing:0px;word-spacing:0px;text-anchor:start;fill:#4d4d4d;fill-opacity:1;stroke:none;font-family:Quattrocento;-inkscape-font-specification:Quattrocento"
         d="m -93.12696,530.97691 q -25.91989,-9.6 -37.43998,-30.24 -11.51988,-20.63999 -11.51988,-45.59999 0,-17.76 6.24003,-33.60001 6.23982,-15.83999 17.75991,-27.35999 12.00008,-11.99999 28.320033,-18.71999 16.79994,-6.72002 37.919965,-6.72002 12.480062,0 24.47993,2.40002 12.480062,2.39999 21.6000114,6.71999 20.1600526,-0.47998 37.4399786,-2.39999 17.760121,-1.91995 33.120101,-6.24001 l 2.399932,1.91994 -3.359905,26.4 -2.40014,2.4 -43.680009,-1.91995 -0.480819,1.43996 q 12.480062,10.08001 18.240107,26.4 5.760044,16.32 5.760044,31.68 0,15.84001 -6.240031,30.24002 -5.760045,14.39998 -17.280134,25.43998 -11.5198814,10.56001 -28.799807,17.28001 -17.280135,6.23999 -39.840119,6.23999 -3.839891,0 -9.599936,0 -5.760045,-0.47999 -9.600144,-0.47999 -8.159976,3.35999 -12.479854,9.11999 -3.840099,5.76001 -3.840099,9.6 0,4.80001 6.240031,8.64001 6.720018,3.35999 21.120025,4.79999 l 46.559928,4.80001 q 15.8399672,1.91994 29.280002,6.71999 13.920022,4.80001 24.000152,12.96001 10.559908,7.67999 16.319953,18.71999 5.760045,11.52001 5.760045,26.4 0,13.92 -6.240031,27.84 -6.240031,14.40001 -18.720094,25.44001 -12.480062,10.55999 -34.5600598,17.27999 -22.0799982,6.71999 -50.8798052,6.71999 -25.920097,0 -45.120177,-5.75998 -18.719884,-5.28002 -31.679934,-14.88001 -12.48006,-9.12 -18.71989,-21.11999 -6.24003,-11.52 -6.24003,-24 0,-20.16002 12.95984,-36 13.44004,-15.36 34.08008,-21.60001 l 0.48082,-1.43996 q -10.55991,-4.31999 -16.79994,-10.56 -6.24003,-6.71999 -6.24003,-16.31999 0,-12.48 10.07992,-20.16001 10.08013,-7.67999 21.60001,-10.55999 z m 43.200023,-14.39999 q 13.440035,0 23.519957,-4.80001 10.560117,-4.79999 17.7601211,-12.95998 7.2000039,-8.16002 11.0398949,-18.72001 3.8400992,-11.04 3.8400992,-22.56001 0,-11.99999 -3.8400992,-23.99998 -3.839891,-12.00002 -11.5198813,-21.60002 -7.2000037,-9.59999 -18.2401067,-15.83998 -11.039895,-6.24001 -25.439903,-6.24001 -13.920021,0 -24.480138,5.76 -10.079922,5.76 -17.279926,14.87999 -6.720021,9.12002 -10.079921,20.64 -3.36011,11.04 -3.36011,22.08 0,11.52 3.36011,23.04001 3.83989,11.04 11.039894,20.15999 7.67999,9.12001 18.240107,14.88002 11.039895,5.27999 25.439902,5.27999 z m -15.35998,82.08 q -13.440035,0.47999 -23.519957,4.79999 -10.079923,4.32001 -17.279926,10.56 -6.72002,6.72001 -10.08013,14.4 -3.35991,8.16 -3.35991,15.84001 0,18.23998 20.159849,29.75999 20.160052,11.52001 54.720113,11.52001 15.839967,0 29.280002,-2.88001 13.4400346,-2.39999 23.0399704,-8.15999 10.0799226,-5.28 15.8399666,-13.44 5.760045,-7.68001 5.760045,-18.24 0,-11.52001 -5.760045,-18.72001 -5.280058,-7.2 -14.4000075,-11.99999 -8.639963,-4.32 -20.1598445,-6.72 -11.040103,-1.91994 -22.080206,-3.36001 z" />
      <path
         inkscape:connector-curvature="0"
         id="path4757"
         style="font-size:33.33333206px;font-style:normal;font-variant:normal;font-weight:normal;font-stretch:normal;text-align:start;line-height:0.55000001;letter-spacing:0px;word-spacing:0px;text-anchor:start;fill:#4d4d4d;fill-opacity:1;stroke:none;font-family:Quattrocento;-inkscape-font-specification:Quattrocento"
         d="m 162.16564,430.33692 q 4.79986,-9.12001 10.55991,-19.19999 6.24003,-10.08001 13.92002,-18.72001 7.67999,-8.64001 17.27993,-14.39999 10.08013,-5.76 22.56019,-5.76 8.63996,0 19.19987,2.88 11.0401,2.39999 14.88,6.71999 l 3.84009,4.32001 -5.76004,36.95999 h -15.83997 q -1.44037,-6.72 -7.67999,-11.99999 -5.76004,-5.76001 -18.2401,-5.76001 -11.99987,0 -22.08,7.20001 -10.07992,6.71999 -17.75991,17.27998 -7.20001,10.56002 -11.52009,22.56001 -3.8399,11.52001 -3.8399,21.12 v 42.72 q 0,10.55999 0,17.27999 0.48082,6.24001 0.48082,11.04 0.48082,4.32 0.48082,7.68001 0.48082,2.88 0.48082,6.23999 l 0.48082,4.32 q 0.95956,7.2 1.91911,13.92 1.44038,6.24001 5.28006,9.6 2.39993,1.91994 6.72002,2.88 4.79986,0.95997 9.59994,1.43996 5.28005,0.47999 10.08013,0.95997 4.79986,0 7.67999,0 l 2.39993,2.4 0.95955,6.23999 -0.95955,1.91994 q -3.36012,0 -11.04011,-0.47998 -7.2,-0.47999 -15.35998,-0.95998 -8.15997,0 -15.83996,-0.47998 -7.20001,0 -10.55991,0 h -11.52009 q -3.35991,0 -10.55991,0 -6.72002,0.47998 -14.40001,0.47998 -7.67999,0.47999 -14.87999,0.95998 -6.720019,0.47998 -10.080132,0.47998 l -0.480819,-1.91994 0.480819,-6.72 1.919113,-1.91995 q 7.679989,0 14.879999,-0.47998 7.67999,-0.95998 11.51988,-4.80001 3.8401,-3.35999 4.80007,-8.63999 1.44037,-5.28001 2.39993,-14.88001 l 0.48082,-4.32 q 0.48082,-4.79999 0.48082,-12 0.48082,-7.2 0.48082,-24.47999 v -59.04001 q 0,-10.07998 0,-16.8 0,-7.19998 -0.48082,-12.48 0,-5.28 -0.48082,-9.6 0,-4.32 -0.48082,-9.11999 -0.95956,-5.28 -2.87992,-9.11999 -1.91911,-4.32 -3.36011,-5.76 -4.79986,-5.76001 -11.99987,-6.72 -7.2,-1.43996 -14.879992,-1.43996 L 93.528005,390.017 v -6.72008 l 1.919113,-1.43995 h 8.639962 q 8.15998,0 20.64004,0 12.47985,-0.47999 21.60001,-1.91995 l 16.79994,-2.39999 2.87992,4.32 q -2.87992,10.08 -4.31988,23.03999 -0.95955,12.96001 -0.95955,24.96 z" />
      <path
         inkscape:connector-curvature="0"
         id="path4759"
         style="font-size:33.33333206px;font-style:normal;font-variant:normal;font-weight:normal;font-stretch:normal;text-align:start;line-height:0.55000001;letter-spacing:0px;word-spacing:0px;text-anchor:start;fill:#4d4d4d;fill-opacity:1;stroke:none;font-family:Quattrocento;-inkscape-font-specification:Quattrocento"
         d="m 394.10314,602.17692 q -3.36012,0 -10.07993,-0.47999 -6.72001,-0.47999 -14.4,-0.95997 -7.67999,0 -14.40001,-0.47999 -6.72002,0 -10.08013,0 h -6.72002 q -3.3599,0 -10.55991,0 -6.72001,0.47999 -14.4,0.47999 -7.20001,0.47998 -14.40001,0.95997 -6.72002,0.47999 -10.07992,0.47999 l -0.48082,-1.91995 0.48082,-6.71999 1.91911,-1.91995 q 7.67999,0 14.87999,-0.47999 7.67999,-0.95997 11.51988,-4.80001 3.8401,-3.35998 4.80008,-8.63998 1.44037,-5.28002 2.39993,-14.88002 0.48082,-7.67999 0.95955,-15.36 0.48082,-8.15999 0.48082,-25.43998 v -59.04001 q 0,-10.07999 0,-16.80001 0,-7.19998 -0.48082,-12.48 0,-5.27999 -0.48081,-9.59999 0,-4.32001 -0.48082,-9.11999 -0.95956,-5.28 -2.87992,-9.12 -1.91912,-4.32 -3.35991,-5.76 -4.80007,-5.76 -12.00007,-6.72 -7.20001,-1.43995 -14.88,-1.43995 l -1.91911,-1.91995 v -6.72023 l 1.91911,-1.43995 h 8.63997 q 8.15997,0 20.64004,0 12.48006,-0.47999 21.60001,-1.91995 l 16.79994,-2.39999 2.88012,4.32 q -0.95955,1.91994 -1.91911,6.71999 -0.48082,4.80001 -0.95956,10.56 0,5.28001 -0.48082,10.56001 0,5.27999 0,8.16 0,3.83999 -0.48081,7.67999 0,3.36001 0,8.15999 0,4.80001 -0.48082,11.52001 0,6.72 0,17.28001 v 53.75999 q 0,10.56 0,17.27999 0.48082,6.72002 0.48082,11.52001 0.48081,4.80001 0.48081,9.12001 0.48082,3.84 0.95956,8.63998 0.95956,10.08001 1.9212,15.36001 1.44037,4.8 5.27985,8.15999 3.84009,3.36001 10.56011,4.32001 7.20001,0.95997 14.40001,0.95997 l 2.39993,2.39999 0.95956,6.23999 z m -80.64,-304.8 q 0,-9.6 6.24003,-16.32 6.72001,-7.2 16.31995,-7.2 9.59994,0 16.31995,7.2 7.20001,6.72 7.20001,16.32 0,9.6 -7.20001,16.32 -6.72001,6.24001 -16.31995,6.24001 -9.59994,0 -16.31995,-6.24001 -6.24003,-6.72 -6.24003,-16.32 z" />
      <path
         inkscape:connector-curvature="0"
         id="path4761"
         style="font-size:33.33333206px;font-style:normal;font-variant:normal;font-weight:normal;font-stretch:normal;text-align:start;line-height:0.55000001;letter-spacing:0px;word-spacing:0px;text-anchor:start;fill:#4d4d4d;fill-opacity:1;stroke:none;font-family:Quattrocento;-inkscape-font-specification:Quattrocento"
         d="m 547.4107,402.01691 h -62.4001 q 0,31.20001 -0.48082,57.60001 0,26.4 0,46.55999 0,19.68001 -0.48082,31.68 0,12.00001 0,14.88002 0,18.71998 7.20001,24.95999 7.2,6.23999 16.79994,6.23999 8.15997,0 18.72009,-2.88 11.0399,-3.35999 17.75991,-7.2 l 4.32009,3.36001 -4.32009,13.43999 q -11.03989,7.68001 -24.95991,11.04 -13.44004,3.84 -23.99995,3.84 -24.48014,0 -34.56006,-13.44 -10.07992,-13.43999 -10.07992,-34.56 0,-4.32 0.48082,-17.75999 0.48082,-13.44 0.95956,-33.60001 0.48081,-20.15999 0.95955,-46.55999 0.48082,-26.4 0.48082,-57.60001 h -34.56006 l -1.91911,-2.39999 v -9.11999 l 1.91911,-1.91995 34.56006,-6.71999 q 0,-16.80001 -0.95956,-34.08002 -0.48081,-17.75999 -1.44037,-34.55999 l 3.3599,-2.88 6.72002,-0.48 q 3.8401,-0.48001 12.48006,-1.92001 8.63997,-1.44 11.99987,-3.36 l 4.32009,1.92001 q -1.44038,6.72 -2.39993,15.84001 -0.95956,8.64 -1.9212,18.71999 -0.48082,10.08 -0.95956,20.63999 0,10.56002 0,20.16002 l 62.40011,-2.88001 2.39993,1.91995 v 18.71999 z" />
      <path
         inkscape:connector-curvature="0"
         id="path4763"
         style="font-size:33.33333206px;font-style:normal;font-variant:normal;font-weight:normal;font-stretch:normal;text-align:start;line-height:0.55000001;letter-spacing:0px;word-spacing:0px;text-anchor:start;fill:#4d4d4d;fill-opacity:1;stroke:none;font-family:Quattrocento;-inkscape-font-specification:Quattrocento"
         d="m 581.5732,710.17691 q 6.72002,0 12.47986,-0.47998 6.24003,-0.47999 12.00007,-2.4 5.76005,-1.43996 11.04011,-5.27999 5.75983,-3.84 12.47985,-10.56002 9.11995,-9.59999 15.83997,-20.63999 6.72002,-10.56 11.0401,-21.59999 l 15.35998,-38.88 -33.1201,-86.88 q -1.91911,-4.32 -6.71981,-15.84 -4.32008,-11.52001 -10.08013,-25.44001 -5.76004,-14.39999 -11.99987,-29.27998 -5.76004,-14.88002 -10.08013,-26.4 -4.79986,-11.52001 -8.63996,-18.24001 -4.80007,-7.68001 -11.0401,-12.00001 -5.75984,-4.31998 -15.83997,-5.27999 l -2.87992,-2.4 v -6.72 l 1.91911,-1.91994 q 8.15998,0.95997 17.28014,1.91994 9.11995,0.95998 16.79994,0.95998 h 18.71988 q 7.67999,0 18.24011,-0.95998 11.0399,-0.95997 20.64004,-1.91994 l 1.91911,1.91994 v 5.76001 l -1.91911,1.91994 q -10.56012,0.95998 -17.76012,5.76001 -6.72002,4.32 -6.72002,12.96 0,5.76001 4.32009,20.64 4.80007,14.40001 10.55991,31.19999 5.76004,16.32002 11.0401,30.72 5.28006,14.40001 7.2,18.72001 l 23.99995,62.4 22.55998,-55.19999 q 3.36011,-8.16002 9.11995,-22.08002 5.76004,-13.91998 11.52009,-29.75999 5.76004,-15.84001 9.59994,-30.72 4.32008,-15.36001 4.32008,-25.92 0,-10.56001 -7.67999,-13.92 -7.67999,-3.83999 -17.28013,-4.80001 l -1.91912,-1.91994 v -5.76001 l 1.91912,-1.91994 q 18.72009,2.88 35.04004,2.88 h 19.68007 q 8.15998,0 15.35998,-0.95997 7.67999,-0.95998 16.79994,-1.91995 l 1.92119,1.91995 v 6.71999 l -2.40014,2.4 q -8.63996,0.95997 -13.44003,4.80001 -4.31988,3.83999 -9.59994,12.48 -4.31987,7.67999 -10.07992,19.19999 -5.28006,11.52001 -11.0401,24.96 -5.27985,13.44 -11.0399,27.36 -5.28006,13.92 -10.08013,25.91999 -4.31987,12.00001 -7.67999,21.12001 -2.87992,8.64 -4.31988,12.00001 l -47.04012,117.11999 q -12.47985,31.20001 -34.07986,46.08 -21.12003,15.36 -46.08015,21.59999 -4.79987,0.95997 -8.63997,0.95997 -3.83989,0.47999 -8.63996,0.47999 l -3.83989,-0.95997 -0.95956,-11.52001 z" />
      <path
         inkscape:connector-curvature="0"
         id="path4765"
         style="font-size:33.33333206px;font-style:normal;font-variant:normal;font-weight:bold;font-stretch:normal;text-align:start;line-height:0.55000001;letter-spacing:0px;word-spacing:0px;text-anchor:start;fill:#007dc7;fill-opacity:1;stroke:#007dc7;stroke-width:20.81467438;stroke-opacity:1;font-family:Quattrocento;-inkscape-font-specification:Quattrocento Bold"
         d="m 1153.0957,605.53691 -70.5601,-199.67998 -28.7998,79.19998 q -6.2401,17.28001 -13.4401,35.52001 -7.2,17.76 -13.92,34.07999 -6.24,15.84001 -11.0401,28.32001 -4.7999,11.99999 -6.72,17.27999 l -53.75994,5.28 h -5.76005 L 874.21566,397.21692 q -5.28006,-14.4 -9.11995,-24 -3.36012,-9.6 -6.24003,-16.32 -2.39994,-6.71999 -4.32009,-11.04 -1.91911,-4.32 -3.3599,-8.15999 -5.28006,-12.00002 -11.04011,-18.24001 -5.27985,-6.72 -11.03989,-9.6 -5.76005,-3.36 -12.00008,-3.84 -5.75983,-0.48 -11.99987,-0.48 l -2.40014,-1.92001 -0.95955,-18.24 0.48082,-1.92001 q 3.36011,0.48001 9.60014,0.95999 6.72002,0.48001 13.92002,0.96 7.1998,0.48001 13.91982,0.95999 6.72001,0 10.08013,0 h 35.52003 q 3.3599,0 11.03989,-0.48001 7.67999,-0.48 15.83997,-0.95999 8.63996,-0.48001 16.31995,-0.95999 7.6802,-0.48001 11.04011,-0.48001 l 0.95955,1.92001 -1.44037,18.24 -2.39993,1.92 q -13.92003,0 -21.60002,3.36001 -7.67999,2.87999 -7.67999,16.79999 0,11.04 7.20001,31.20001 7.67999,19.68001 18.71988,49.92 l 29.28,78.72 q 8.15998,19.19999 13.44004,36.95999 5.28006,17.28001 10.55991,28.80001 3.8401,-11.04 10.56012,-27.84 6.71997,-17.28001 14.39997,-37.92 l 29.28,-78.72 q 15.84,-41.76 15.84,-65.76001 0,-19.19999 -8.64,-27.36 -8.6399,-8.16 -34.08,-8.16 l -2.4,-1.92 -0.9595,-18.24 0.4808,-1.92001 q 3.3599,0.48001 10.5599,0.95999 7.68,0.48001 15.36,0.96 8.16,0.48 15.36,0.95999 7.68,0 11.0401,0 h 35.52 q 3.3599,0 10.0799,-0.48001 7.2,-0.48 14.4,-0.95999 7.68,-0.48001 14.4,-0.95999 7.2,-0.48001 10.5599,-0.48001 l 0.9596,1.92001 -1.4404,18.24 -2.3999,1.92 q -13.92,0 -21.6,3.36 -7.68,2.88 -7.68,16.8 0,11.04 5.2801,31.20001 5.2798,19.68001 15.8399,49.92 l 27.3601,78.72 q 6.72,19.68 12.4798,36.48 5.7601,16.8 11.5201,28.31999 3.3599,-11.04 9.12,-27.84 5.76,-16.8 12.96,-36.95999 l 27.3601,-78.72 q 10.5599,-29.76001 16.7999,-49.92 6.24,-20.16001 6.24,-31.20001 0,-13.92 -7.6799,-16.8 -7.68,-3.36 -21.6001,-3.36 l -2.4001,-1.92 -0.9596,-18.24 0.9596,-1.92001 q 3.3601,0.48001 10.5601,0.95999 7.2,0.48001 14.88,0.96 7.68,0.48 14.88,0.95999 7.2,0 10.5599,0 h 28.32 q 3.3602,0 9.6002,-0.48001 6.7198,-0.48 13.9198,-0.95999 7.2,-0.48001 13.92,-0.95999 6.72,-0.48001 10.0802,-0.48001 l 0.9595,1.92001 -1.4404,18.24 -2.4001,1.92 q -6.24,0 -11.9999,0.48001 -5.76,0.48001 -11.5201,3.84 -5.28,2.88 -11.0399,9.6 -5.28,6.23999 -11.0401,18.24 -0.9595,2.4 -1.9191,4.79999 -0.9595,2.40002 -3.3601,7.68001 -1.9191,4.79999 -5.2798,13.92001 -3.3601,9.11999 -9.1202,24.95999 -5.7598,15.36001 -14.4,38.88 -8.64,23.52 -20.6398,57.11999 -5.7601,16.8 -12.4801,35.04 -6.24,17.76 -12.0001,34.08001 -5.7598,15.83999 -10.0799,28.31999 -4.3201,12.48 -5.76,17.76 l -53.76,5.27999 z" />
      <path
         inkscape:connector-curvature="0"
         id="path4767"
         style="font-size:33.33333206px;font-style:normal;font-variant:normal;font-weight:bold;font-stretch:normal;text-align:start;line-height:0.55000001;letter-spacing:0px;word-spacing:0px;text-anchor:start;fill:#007dc7;fill-opacity:1;stroke:#007dc7;stroke-width:20.81467438;stroke-opacity:1;font-family:Quattrocento;-inkscape-font-specification:Quattrocento Bold"
         d="m 1542.6381,477.85693 -11.5201,8.63998 q -25.9199,0 -51.36,0.47999 -24.9599,0.47998 -51.36,0.47998 h -39.3599 q -0.4808,3.35999 -0.4808,6.72 0,2.88 0,5.76 0,12.48 4.3201,24.96 4.3198,12.48 13.4398,22.55999 9.6001,9.6 24.0001,15.84001 14.4001,5.76 35.0399,5.76 14.88,0 31.2001,-3.84 16.8,-4.32 31.2,-11.04 l 8.16,3.35999 v 17.28001 l -4.8001,5.28 q -11.5199,9.11999 -34.0799,17.27999 -22.08,8.15999 -48.0001,8.15999 -25.4399,0 -46.5599,-8.15999 -20.64,-8.63999 -36,-23.99999 -14.88,-15.36 -23.52,-36.48 -8.1599,-21.12001 -8.1599,-47.04 0,-26.4 8.6399,-47.99999 8.64,-21.60002 23.52,-36.96002 15.36,-15.36 35.52,-23.99998 20.64,-8.64001 44.16,-8.64001 12.4801,0 27.84,3.35999 15.84,3.36001 30.24,12.96001 14.4,9.11999 25.9199,26.4 11.5201,16.8 15.84,44.64 z m -95.52,-69.60001 q -23.5199,0 -37.9199,14.39999 -13.9201,13.92 -17.7602,32.64001 h 24.0002 q 16.7999,0 33.1199,-0.47999 16.3199,-0.95997 33.1201,-0.95997 6.24,0 9.1199,-3.36001 2.8799,-3.83999 2.8799,-7.67999 0,-14.4 -13.92,-24.47999 -13.9198,-10.08 -32.6399,-10.08 z" />
      <path
         inkscape:connector-curvature="0"
         id="path4769"
         style="font-size:33.33333206px;font-style:normal;font-variant:normal;font-weight:bold;font-stretch:normal;text-align:start;line-height:0.55000001;letter-spacing:0px;word-spacing:0px;text-anchor:start;fill:#007dc7;fill-opacity:1;stroke:#007dc7;stroke-width:20.81467438;stroke-opacity:1;font-family:Quattrocento;-inkscape-font-specification:Quattrocento Bold"
         d="m 1656.3081,561.85692 q 0,9.59999 1.9191,17.28001 1.9212,7.67999 3.8401,12.95998 l -2.8801,8.16 h -22.08 q -4.7999,0 -13.92,0 -8.64,0.47999 -18.7199,0.47999 -10.08,0.47998 -19.2001,0.95997 -8.64,0.47998 -13.44,0.47998 l -0.4809,-1.91994 0.9596,-16.32 1.4404,-1.91994 q 6.72,0 13.44,-0.47999 6.7198,-0.95997 10.5599,-4.80001 3.8401,-3.35998 5.7601,-8.64 1.9191,-5.28 1.9191,-14.88 v -6.23999 q 0,-4.32 0,-8.15999 0.4808,-3.84002 0.4808,-9.6 0,-6.24001 0,-15.84001 0.4808,-9.6 0.4808,-25.44001 V 377.53698 q 0,-19.68 -0.4808,-32.63999 0,-12.96 -0.4808,-22.08002 0,-9.11999 -0.4808,-15.83999 0,-6.72 -0.4809,-14.88 -0.4808,-5.28 -3.3601,-9.6 -2.8799,-4.32 -4.7998,-5.75999 -6.2401,-5.28 -13.4401,-6.24 -6.72,-1.44001 -14.4,-1.44001 l -1.9191,-1.92 v -15.84006 l 1.9191,-1.92001 h 24 q 11.0401,0 24.9601,0 13.92,-0.48 23.5199,-1.92 l 16.8,-2.4 2.8801,9.12 q -0.9596,1.92001 -1.9212,7.2 -0.4808,4.8 -0.9595,10.56 -0.4809,5.76 -0.9596,11.04 0,5.28 0,8.16 0,7.68 0,13.92 0,5.76 -0.4808,13.91999 0,8.15999 0,20.63999 0,12.00002 0,32.16001 0,20.63999 -0.4808,30.23999 -0.4809,9.12001 -0.9596,14.88002 l 1.4404,0.95997 q 13.92,-20.16001 34.0801,-32.64001 20.1598,-12.95999 45.5999,-12.95999 27.3601,0 47.0399,9.6 20.1601,9.6 33.1201,25.43999 12.9601,15.84001 19.1999,36.48 6.24,20.16001 6.24,42.24001 0,32.63999 -10.0799,55.68 -10.0801,22.55999 -25.9201,36.96 -15.36,13.92 -34.0799,20.63999 -18.2401,6.23999 -35.04,6.23999 -23.04,0 -43.68,-10.07998 -20.1601,-10.08001 -35.0401,-34.56 z m 129.1201,-74.4 q 0,-14.4 -3.8401,-27.84 -3.3599,-13.92 -10.5599,-24.48001 -7.2,-11.04 -18.7201,-17.27999 -11.0399,-6.71999 -26.4001,-6.71999 -16.32,0 -29.28,5.76 -12.4799,5.27999 -21.5998,13.43999 -8.6402,7.67999 -13.92,16.32 -4.8001,8.64 -5.2801,14.87999 v 53.28001 q 0.9596,6.23999 5.2801,15.36 4.7998,8.64 12.9598,17.27999 8.6402,8.16 21.12,13.92 12.4801,5.76 29.76,5.76 15.84,0 27.3601,-6.71999 11.5201,-7.20001 18.7201,-18.24001 7.68,-11.04 11.0399,-25.43998 3.3601,-14.40001 3.3601,-29.28001 z" />
      <path
         inkscape:connector-curvature="0"
         id="path4771"
         style="font-size:15.37376881px;font-style:normal;font-variant:normal;font-weight:normal;font-stretch:normal;text-align:start;line-height:0.55000001;letter-spacing:0px;word-spacing:0px;text-anchor:start;fill:#4d4d4d;fill-opacity:1;stroke:none;font-family:Quattrocento;-inkscape-font-specification:Quattrocento"
         d="m -983.00943,819.2993 q 0,8.95999 3.20005,15.04 3.20004,5.76 9.59993,10.23998 6.72002,4.48001 16.64008,8.32 10.23999,3.52001 23.99995,7.68001 11.84001,3.84 23.3601,8.64001 11.51988,4.79999 20.47997,12.48 9.28002,7.35998 14.71993,18.23998 5.44012,10.56001 5.44012,25.92001 0,16.32 -6.40009,27.84 -6.39989,11.19999 -16.96001,18.23999 -10.5599,7.04 -24.63999,10.24 -13.75996,3.20001 -29.11994,3.20001 -19.83992,0 -36.16008,-4.48 -16.31995,-4.48001 -29.43989,-11.20001 l -1.2801,-4.16 5.4402,-34.23999 h 7.99986 l 1.60065,1.91995 q 1.60065,19.52 15.6799,28.80001 14.08009,8.95999 38.40016,8.95999 24.95992,0 37.43998,-11.2 12.79998,-11.51999 12.79998,-29.75999 0,-11.2 -4.80007,-18.56001 -4.80007,-7.67999 -12.79998,-12.8 -7.67999,-5.44 -17.91998,-8.95999 -9.92006,-3.52001 -20.16005,-7.04 -12.79998,-4.16 -23.99994,-8.96001 -10.88004,-5.11999 -19.20008,-11.83999 -7.99992,-6.72 -12.80003,-16.00001 -4.4799,-9.27999 -4.4799,-22.08 0,-15.04 5.12,-25.27998 5.43991,-10.56002 14.71992,-16.96001 9.28002,-6.71999 21.43995,-9.6 12.48006,-2.88 26.88007,-2.88 17.27993,0 32.64011,3.20001 15.35998,3.19998 24.95992,7.67999 l 1.2801,3.52001 -4.47994,28.47999 h -8.95988 l -1.60065,-1.60002 q -0.64109,-8.32 -5.44013,-13.44 -4.79986,-5.11999 -11.51988,-7.99999 -6.40009,-2.88 -14.08008,-3.84002 -7.35986,-0.95997 -13.11991,-0.95997 -20.8001,0 -32.64011,9.27999 -11.84001,8.96001 -11.84001,25.92002 z" />
      <path
         inkscape:connector-curvature="0"
         id="path4773"
         style="font-size:15.37376881px;font-style:normal;font-variant:normal;font-weight:normal;font-stretch:normal;text-align:start;line-height:0.55000001;letter-spacing:0px;word-spacing:0px;text-anchor:start;fill:#4d4d4d;fill-opacity:1;stroke:none;font-family:Quattrocento;-inkscape-font-specification:Quattrocento"
         d="m -697.31929,895.77928 -5.11999,2.24001 q -17.28014,0 -35.52004,0.31992 -18.2401,0.31993 -35.83995,0.31993 h -37.76011 q -0.32054,2.24001 -0.32054,4.48 0,1.91995 0,3.84 0,12.16001 3.51996,23.35999 3.51997,10.88002 10.88004,19.20002 7.67999,8.32 19.52,13.43999 11.84002,4.79999 28.80002,4.79999 9.91986,0 21.11982,-1.91994 11.52009,-2.24002 21.12002,-7.68002 l 3.20005,1.91995 v 5.76 l -3.20005,3.51999 q -7.67999,6.08001 -21.75987,11.20001 -14.08008,4.8 -31.36001,4.8 -16.96,0 -31.04009,-5.43999 -13.75996,-5.76001 -23.99994,-16.00001 -9.92007,-10.23999 -15.68011,-24.31999 -5.43992,-14.08001 -5.43992,-31.36002 0,-17.59999 5.76005,-31.99998 5.76004,-14.40001 15.6799,-24.64001 10.23999,-10.23999 23.68002,-15.99999 13.75996,-5.76001 29.44007,-5.76001 8.32004,0 18.56003,2.24 10.5599,2.24001 20.15984,8.64 9.60014,6.08001 17.28013,17.59999 7.67999,11.20001 10.55991,29.76001 z m -64.00013,-51.51998 q -10.23998,0 -18.56003,3.51999 -7.99991,3.2 -14.4,8.96001 -6.07997,5.44 -10.23999,13.11999 -3.83989,7.36 -5.43991,15.68 h 12.48006 q 17.27992,0 33.59988,-0.31992 16.31995,-0.64005 34.24014,-1.60002 4.15981,-0.31992 5.43991,-2.23999 1.60065,-1.91995 1.60065,-4.48001 0,-1.91995 -0.32055,-3.51999 -0.32054,-1.60002 -0.95955,-3.20001 -3.51997,-12.15999 -13.11991,-18.87999 -9.59993,-7.04 -24.32007,-7.04 z" />
      <path
         inkscape:connector-curvature="0"
         id="path4775"
         style="font-size:15.37376881px;font-style:normal;font-variant:normal;font-weight:normal;font-stretch:normal;text-align:start;line-height:0.55000001;letter-spacing:0px;word-spacing:0px;text-anchor:start;fill:#4d4d4d;fill-opacity:1;stroke:none;font-family:Quattrocento;-inkscape-font-specification:Quattrocento"
         d="m -626.15434,868.57929 q 3.20005,-6.08001 7.03994,-12.80001 4.16002,-6.71999 9.28002,-12.48 5.11999,-5.75998 11.52009,-9.59999 6.72001,-3.84 15.03985,-3.84 5.76004,0 12.80019,1.91995 7.35986,1.60002 9.91986,4.47998 l 2.55999,2.88 -3.83989,24.64002 h -10.56011 q -0.95956,-4.48001 -5.12,-8.00002 -3.83989,-3.83999 -12.15993,-3.83999 -7.99991,0 -14.71993,4.80001 -6.72002,4.47998 -11.84001,11.51998 -4.80007,7.04 -7.67999,15.04 -2.56,7.68001 -2.56,14.08 v 28.48007 q 0,7.04001 0,11.51999 0.32055,4.16 0.32055,7.36001 0.32054,2.88 0.32054,5.11999 0.32055,1.91994 0.32055,4.16 l 0.32055,2.88 q 0.64109,4.80001 1.2801,9.28001 0.95956,4.16 3.51997,6.4 1.60065,1.2801 4.47994,1.91994 3.20005,0.64005 6.4001,0.95997 3.51997,0.31993 6.71981,0.64006 3.20004,0 5.1202,0 l 1.60065,1.60002 0.64109,4.16 -0.64109,1.2801 q -2.23987,0 -7.35986,-0.31992 -4.80008,-0.31992 -10.23999,-0.64005 -5.44012,0 -10.56012,-0.31992 -4.79986,0 -7.03994,0 h -7.67999 q -2.24007,0 -7.03994,0 -4.48015,0.31992 -9.60014,0.31992 -5.11999,0.31992 -9.91986,0.64005 -4.48015,0.31992 -6.72001,0.31992 l -0.32055,-1.2801 0.32055,-4.48 1.2801,-1.2799 q 5.11999,0 9.92006,-0.31992 5.12,-0.64005 7.67999,-3.20001 2.56,-2.23999 3.20005,-5.76 0.95956,-3.51999 1.60065,-9.92 l 0.32055,-2.88 q 0.32054,-3.19999 0.32054,-8 0.32055,-4.79999 0.32055,-16.31999 v -39.36001 q 0,-6.72 0,-11.2 0,-4.79999 -0.32055,-8.32 0,-3.51999 -0.32054,-6.4 0,-2.88 -0.32055,-6.08 -0.64109,-3.51999 -1.92119,-6.07999 -1.28011,-2.88 -2.23987,-3.84 -3.20005,-3.84001 -8.00012,-4.48 -4.79987,-0.95997 -9.91986,-0.95997 l -1.2801,-1.28011 v -4.48 l 1.2801,-0.95997 h 5.75984 q 5.44012,0 13.76016,0 8.31984,-0.31992 14.40001,-1.28011 l 11.19996,-1.60002 1.91911,2.87998 q -1.91911,6.72002 -2.87992,15.36 -0.64109,8.64001 -0.64109,16.64 z" />
      <path
         inkscape:connector-curvature="0"
         id="path4777"
         style="font-size:15.37376881px;font-style:normal;font-variant:normal;font-weight:normal;font-stretch:normal;text-align:start;line-height:0.55000001;letter-spacing:0px;word-spacing:0px;text-anchor:start;fill:#4d4d4d;fill-opacity:1;stroke:none;font-family:Quattrocento;-inkscape-font-specification:Quattrocento"
         d="m -478.56935,983.45928 -3.20004,-1.60002 -19.19988,-51.2 q -0.95955,-2.88 -4.16002,-10.55999 -2.88012,-7.68001 -6.72001,-16.96 -3.8401,-9.28 -8.00012,-19.2 -3.8399,-10.24001 -7.03994,-17.92 -3.20005,-7.68001 -5.76005,-12.15999 -3.20005,-5.12002 -7.35986,-8.00002 -3.8401,-2.87998 -10.56012,-3.51999 l -1.91911,-1.60002 v -4.48001 l 1.2801,-1.2801 q 5.44013,0.64005 11.52009,1.2801 6.07997,0.64005 11.19996,0.64005 h 12.48007 q 5.11999,0 12.15993,-0.64005 7.36007,-0.64005 13.75995,-1.2801 l 1.28011,1.2801 v 3.84002 l -1.28011,1.2801 q -7.03993,0.64005 -11.84001,3.83999 -4.47994,2.88001 -4.47994,8.64001 0,3.83999 2.87992,13.76 3.20005,9.6 7.04015,20.8 3.83989,10.87999 7.35986,20.47999 3.52018,9.28 4.80007,12.48 l 15.68011,41.6 15.35998,-36.80001 q 2.23987,-5.44 6.07997,-14.71999 3.83989,-9.28 7.67999,-19.84001 3.83989,-10.55999 6.39988,-20.47999 2.88013,-10.23999 2.88013,-17.27999 0,-7.04 -5.11999,-9.28002 -5.12,-2.55999 -11.52009,-3.19998 l -1.2801,-1.2801 v -3.84002 l 1.2801,-1.2801 q 12.48006,1.91994 23.3601,1.91994 h 13.1199 q 5.44013,0 10.56012,-0.64005 5.43992,-0.64005 11.51988,-1.2801 l 1.2801,1.2801 v 4.48001 l -1.91911,1.60002 q -5.43991,0.64005 -9.59993,3.20001 -3.8399,2.55999 -7.36007,8.32 -2.87992,5.11999 -6.71981,12.79998 -3.52018,7.68001 -7.36007,16.64 -3.51997,8.96001 -7.36007,18.24 -3.51997,9.28002 -6.72002,17.28001 -2.87992,8 -5.11999,14.08001 -1.91911,5.75998 -2.87992,7.99999 l -16.31995,40.95999 z" />
      <path
         inkscape:connector-curvature="0"
         id="path4779"
         style="font-size:15.37376881px;font-style:normal;font-variant:normal;font-weight:normal;font-stretch:normal;text-align:start;line-height:0.55000001;letter-spacing:0px;word-spacing:0px;text-anchor:start;fill:#4d4d4d;fill-opacity:1;stroke:none;font-family:Quattrocento;-inkscape-font-specification:Quattrocento"
         d="m -306.52941,983.13928 q -2.24007,0 -6.72001,-0.31992 -4.47994,-0.31992 -9.59994,-0.64005 -5.11999,0 -9.59993,-0.31993 -4.48015,0 -6.72002,0 h -4.48015 q -2.23987,0 -7.03994,0 -4.47994,0.31993 -9.59994,0.31993 -4.80007,0.31992 -9.60014,0.64005 -4.47994,0.31992 -6.71981,0.31992 l -0.32055,-1.2801 0.32055,-4.48001 1.2801,-1.27989 q 5.12,0 9.92007,-0.31992 5.11999,-0.64006 7.67999,-3.20001 2.55999,-2.23999 3.20005,-5.76 0.95955,-3.51999 1.60064,-9.92001 0.32055,-5.11999 0.6411,-10.23998 0.32054,-5.44 0.32054,-16.96001 v -39.36001 q 0,-6.71999 0,-11.2 0,-4.79999 -0.32054,-8.32 0,-3.51999 -0.32055,-6.39999 0,-2.88 -0.32055,-6.08001 -0.63901,-3.51999 -1.91911,-6.07998 -1.2801,-2.88001 -2.23987,-3.84 -3.20004,-3.84002 -8.00012,-4.48 -4.80007,-0.95998 -9.92006,-0.95998 l -1.2801,-1.2801 v -4.48 l 1.2801,-0.95998 h 5.76004 q 5.44013,0 13.75996,0 8.32004,-0.31992 14.40001,-1.2801 l 11.20017,-1.60002 1.91911,2.87998 q -0.64109,1.2801 -1.2801,4.48 -0.32055,3.20001 -0.63901,7.04 0,3.52001 -0.32055,7.04001 0,3.51999 0,5.43999 0,2.56 -0.32055,5.12 0,2.24001 0,5.44 0,3.2 -0.32054,7.68001 0,4.48 0,11.52 v 35.84012 q 0,7.04001 0,11.51999 0.32054,4.48 0.32054,7.68001 0.32055,3.20001 0.32055,6.07999 0.32055,2.56001 0.64109,5.76 0.63901,6.72 1.2801,10.24001 0.95956,3.2 3.52018,5.44 2.56,2.23999 7.03994,2.88 4.80007,0.64005 9.59994,0.64005 l 1.60065,1.60002 0.64109,4.16 z m -53.75993,-203.19999 q 0,-6.39999 4.16002,-10.88 4.47995,-4.8 10.88004,-4.8 6.39989,0 10.87983,4.8 4.80007,4.48001 4.80007,10.88 0,6.39999 -4.80007,10.88 -4.47994,4.16 -10.87983,4.16 -6.40009,0 -10.88004,-4.16 -4.16002,-4.48001 -4.16002,-10.88 z" />
      <path
         inkscape:connector-curvature="0"
         id="path4781"
         style="font-size:15.37376881px;font-style:normal;font-variant:normal;font-weight:normal;font-stretch:normal;text-align:start;line-height:0.55000001;letter-spacing:0px;word-spacing:0px;text-anchor:start;fill:#4d4d4d;fill-opacity:1;stroke:none;font-family:Quattrocento;-inkscape-font-specification:Quattrocento"
         d="m -162.40444,868.89929 -1.2801,-0.95997 q 0,-7.36001 -4.47994,-11.84001 -4.16002,-4.79999 -10.23999,-7.36001 -6.08018,-2.55999 -13.12011,-3.51999 -6.72002,-0.95997 -11.84002,-0.95997 -14.71992,0 -25.59996,5.44 -10.55991,5.11999 -17.60006,14.08 -7.03994,8.63998 -10.55991,20.15999 -3.20005,11.2 -3.20005,23.03999 0,12.16002 3.51997,23.36 3.8401,11.2 11.52009,19.84001 7.67999,8.64 19.19988,13.75999 11.52008,5.12 27.52012,5.12 10.88003,0 23.99994,-3.19999 13.44003,-3.52001 23.03997,-8.64 l 3.20005,3.2 -4.80007,8.95999 q -3.51997,2.56 -9.28002,5.44 -5.43991,2.56 -12.47985,5.12001 -7.04015,2.24 -15.35998,3.84 -8.00012,1.60002 -16.00003,1.60002 -15.68011,0 -30.08012,-5.43999 -14.07988,-5.76001 -24.95992,-15.68001 -10.56012,-10.24001 -16.96,-24.31999 -6.4001,-14.40001 -6.4001,-31.68002 0,-17.59999 6.4001,-31.99998 6.39988,-14.40001 17.60005,-24.64001 11.19996,-10.23999 25.91989,-15.99999 15.04006,-5.76001 32.00007,-5.76001 15.35998,0 28.80001,3.84 13.75996,3.84001 20.7999,7.68001 l 0.95955,2.88 -3.51997,24.64 z" />
      <path
         inkscape:connector-curvature="0"
         id="path4783"
         style="font-size:15.37376881px;font-style:normal;font-variant:normal;font-weight:normal;font-stretch:normal;text-align:start;line-height:0.55000001;letter-spacing:0px;word-spacing:0px;text-anchor:start;fill:#4d4d4d;fill-opacity:1;stroke:none;font-family:Quattrocento;-inkscape-font-specification:Quattrocento"
         d="m 15.180531,895.77928 -5.119994,2.24001 q -17.2799256,0 -35.519824,0.31992 -18.240107,0.31993 -35.840163,0.31993 h -37.7599 q -0.320546,2.24001 -0.320546,4.48 0,1.91995 0,3.84 0,12.16001 3.519969,23.35999 3.51997,10.88002 10.880039,19.20002 7.67999,8.32 19.520001,13.43999 11.839803,4.79999 28.799807,4.79999 9.920066,0 21.120025,-1.91994 11.52009,-2.24002 21.1200258,-7.68002 l 3.2000479,1.91995 v 5.76 l -3.2000479,3.51999 q -7.6799903,6.08001 -21.7598688,11.20001 -14.080086,4.8 -31.360012,4.8 -16.960004,0 -31.040091,-5.43999 -13.759956,-5.76001 -23.999939,-16.00001 -9.92007,-10.23999 -15.68011,-24.31999 -5.43992,-14.08001 -5.43992,-31.36002 0,-17.59999 5.76005,-31.99998 5.75983,-14.40001 15.6799,-24.64001 10.239984,-10.23999 23.680019,-15.99999 13.759957,-5.76001 29.440067,-5.76001 8.320042,0 18.560029,2.24 10.559908,2.24001 20.159844,8.64 9.60014395,6.08001 17.2801342,17.59999 7.6799898,11.20001 10.5599088,29.76001 z M -48.819388,844.2593 q -10.239987,0 -18.560028,3.51999 -7.999912,3.2 -14.400008,8.96001 -6.079966,5.44 -10.239987,13.11999 -3.839891,7.36 -5.439915,15.68 h 12.480062 q 17.279926,0 33.599879,-0.31992 16.319954,-0.64005 34.239931,-1.60002 4.160021,-0.31992 5.440123,-2.23999 1.600649,-1.91995 1.600649,-4.48001 0,-1.91995 -0.320546,-3.51999 -0.320546,-1.60002 -0.959557,-3.20001 -3.519969,-12.15999 -13.119905,-18.87999 -9.600144,-7.04 -24.320073,-7.04 z" />
      <path
         inkscape:connector-curvature="0"
         id="path4785"
         style="font-size:15.37376881px;font-style:normal;font-variant:normal;font-weight:normal;font-stretch:normal;text-align:start;line-height:0.55000001;letter-spacing:0px;word-spacing:0px;text-anchor:start;fill:#4d4d4d;fill-opacity:1;stroke:none;font-family:Quattrocento;-inkscape-font-specification:Quattrocento"
         d="m 116.10568,897.0593 q 13.43983,2.87998 21.43995,7.99999 8.32004,4.79999 12.79998,10.56 4.47994,5.76 5.76005,11.84001 1.60065,5.75998 1.60065,10.87999 0,10.23999 -4.16003,18.88 -4.16002,8.64 -12.16014,15.03999 -7.67999,6.08001 -18.87995,9.6 -11.19996,3.52001 -25.280042,3.52001 -15.679902,0 -29.439859,-3.52001 -13.440035,-3.84 -21.440155,-8 l -0.63901,-2.88 4.799864,-32.95999 h 7.360068 l 0.959557,1.2801 q 0,15.36 9.599936,24.31999 9.600143,8.64001 27.840042,8.64001 10.880039,0 18.240109,-2.56 7.35986,-2.56 11.51988,-6.72 4.48015,-4.16 6.4001,-8.96001 1.91911,-4.79999 1.91911,-9.27999 0,-2.88 -0.32055,-6.39999 -0.32054,-3.84002 -2.55999,-7.36001 -2.24008,-3.83999 -6.72002,-7.04 -4.48015,-3.51999 -12.79999,-5.76 L 81.225283,910.4994 q -10.560116,-2.56 -17.280134,-6.72 -6.720017,-4.16 -10.559908,-8.96001 -3.8401,-5.11999 -5.440124,-10.55999 -1.600648,-5.76 -1.600648,-11.52001 0,-10.55999 4.160021,-18.56001 4.160021,-8.32 11.200168,-13.43999 7.35986,-5.44 16.959796,-7.99999 9.600144,-2.88001 20.800104,-2.88001 15.040062,0 27.519912,3.84 12.79998,3.84002 19.84013,7.68001 l 0.95956,2.88 -3.51997,24.64 h -6.72002 l -1.2801,-0.95998 q 0,-7.36 -4.16002,-12.16001 -3.83989,-5.12 -9.59994,-8 -5.76004,-3.2 -12.15993,-4.48 -6.4001,-1.2801 -11.19996,-1.2801 -16.000032,0 -23.040179,7.99999 -7.039939,8.00002 -7.039939,17.92002 0,7.35999 4.800072,14.07998 5.119994,6.40002 19.520001,9.92001 z" />
      <path
         inkscape:connector-curvature="0"
         id="path32"
         style="fill:#007dc7;fill-opacity:1;fill-rule:evenodd;stroke:none"
         d="m 132.53117,1073.639 v 0 c -7.59951,-20.8195 -39.922731,-32.153 -75.793905,-28.419 -9.640724,1.8425 -20.935463,3.7109 -30.444395,5.5812 -45.34197,15.2151 -276.55042,92.864 -278.44468,94.7343 l -5.72066,2.0077 3.88094,3.7188 c 26.55552,20.8033 39.74456,43.6557 32.12957,62.6126 -7.42953,30.258 -45.481,47.3437 -106.0683,51.0613 -56.82211,5.7685 -125.00894,0 -206.5314,-15.0348 7.61495,0 18.96393,0 28.4265,1.8425 58.70092,0 113.66785,0 157.30879,-3.9048 66.32347,-5.5735 98.46882,-20.7965 102.33403,-45.4887 1.88013,-16.9312 -7.59919,-30.2961 -30.45984,-41.6145 -24.53007,-13.2059 -77.61817,-18.9483 -126.84111,-28.4181 -36.01052,-5.7522 -66.33888,-9.4796 -91.00047,-15.0542 -79.50491,-20.9875 -161.06615,-41.7842 -257.66374,-34.1781 -15.19144,1.8614 -30.26655,1.8614 -45.47343,5.5911 -71.92085,13.3649 -143.98831,30.4592 -219.77467,51.2473 l -9.4547,1.8596 111.84326,159.1944 c 18.91727,-3.904 39.72913,-7.6152 60.52522,-9.4788 26.54799,-1.8577 51.25593,-1.8577 73.95386,1.8633 30.25898,5.7292 107.88506,20.8034 181.82347,36.0189 75.97175,17.0847 149.69387,30.3046 176.28063,34.0149 17.09299,2.0157 32.29198,2.0157 47.35954,2.0157 37.88149,-3.8954 75.77845,-24.7081 111.79687,-43.6318 11.32564,-7.616 22.69795,-11.3428 34.18596,-18.9803 l 329.53824,-178.104 c 37.88149,-22.6603 37.88149,-41.6163 32.28442,-51.0795 v 0" />
      <path
         inkscape:connector-curvature="0"
         id="path20"
         style="fill:#007dc7;fill-opacity:1;fill-rule:evenodd;stroke:none"
         d="m -899.3517,-42.064028 c -315.8448,215.674758 -476.8798,614.556448 -372.2646,1004.894128 132.3825,494.1776 640.34295,787.449 1134.51105,655.0118 403.81068,-108.1845 673.39511,-467.04 686.32941,-864.2967 -55.89033,326.0039 -295.20649,606.0763 -635.660192,697.2827 C -552.8553,1575.826 -1032.1996,1299.0576 -1157.1976,832.64768 c -87.7468,-327.58335 22.6829,-661.60192 257.8459,-874.711708 v 0" />
    </g>
  </g>
</svg>
