<?xml version="1.0" encoding="UTF-8" standalone="no"?>
<!-- Created with Inkscape (http://www.inkscape.org/) -->

<svg
   xmlns:osb="http://www.openswatchbook.org/uri/2009/osb"
   xmlns:dc="http://purl.org/dc/elements/1.1/"
   xmlns:cc="http://creativecommons.org/ns#"
   xmlns:rdf="http://www.w3.org/1999/02/22-rdf-syntax-ns#"
   xmlns:svg="http://www.w3.org/2000/svg"
   xmlns="http://www.w3.org/2000/svg"
   xmlns:sodipodi="http://sodipodi.sourceforge.net/DTD/sodipodi-0.dtd"
   xmlns:inkscape="http://www.inkscape.org/namespaces/inkscape"
   width="3163"
   height="1694"
   id="svg3503"
   version="1.1"
   inkscape:version="0.92.4 (5da689c313, 2019-01-14)"
   inkscape:export-filename="/home/miguelnarvaez/Imágenes/svg/iws2/imagen/logoiws.png"
   inkscape:export-xdpi="90"
   inkscape:export-ydpi="90"
   sodipodi:docname="logo2.svg">
  <defs
     id="defs3505">
    <linearGradient
       id="linearGradient4641"
       osb:paint="solid">
      <stop
         style="stop-color:#000000;stop-opacity:1;"
         offset="0"
         id="stop4639" />
    </linearGradient>
  </defs>
  <sodipodi:namedview
     id="base"
     pagecolor="#ffffff"
     bordercolor="#ffffff"
     borderopacity="0"
     inkscape:pageopacity="0.0"
     inkscape:pageshadow="0"
     inkscape:zoom="0.24748737"
     inkscape:cx="1353.5136"
     inkscape:cy="850.51675"
     inkscape:document-units="px"
     inkscape:current-layer="layer1"
     showgrid="false"
     inkscape:window-width="1280"
     inkscape:window-height="738"
     inkscape:window-x="-8"
     inkscape:window-y="-8"
     inkscape:window-maximized="1"
     showborder="false"
     inkscape:showpageshadow="true" />
  <metadata
     id="metadata3508">
    <rdf:RDF>
      <cc:Work
         rdf:about="">
        <dc:format>image/svg+xml</dc:format>
        <dc:type
           rdf:resource="http://purl.org/dc/dcmitype/StillImage" />
        <dc:title></dc:title>
      </cc:Work>
    </rdf:RDF>
  </metadata>
  <g
     inkscape:label="Layer 1"
     inkscape:groupmode="layer"
     id="layer1"
     transform="translate(0,641.63782)">
    <path
       inkscape:connector-curvature="0"
       id="path4647"
       d="M 297.2692,93.32136 H 1854.7981"
       style="fill:#007dc7;fill-opacity:1;stroke:#007dc7;stroke-width:12.52577305;stroke-linecap:butt;stroke-linejoin:miter;stroke-miterlimit:4;stroke-dasharray:none;stroke-opacity:1" />
    <path
       d="m 417.60448,-314.84654 -1.44038,8.64 -1.91911,1.92001 q -7.67999,0 -14.88,0.95999 -6.72001,0.48001 -11.0401,3.84 -3.83989,3.36 -7.2,8.64 -3.35991,5.27999 -4.31988,18.72001 -0.48082,6.72 -0.95956,12.48 0,5.75998 -0.48082,13.43999 0,7.67999 0,18.71999 0,11.04 0,28.32001 v 88.31999 q 0,17.28001 0,28.32001 0,10.55999 0,17.76 0.48082,7.2 0.48082,12.48 0.48082,4.80001 0.95956,10.55999 0.95956,13.44001 4.31988,18.72001 3.36011,5.27999 7.2,8.64 4.32009,3.35999 11.0401,4.32 7.20001,0.47999 14.88,0.47999 l 1.91911,1.91995 1.44038,8.64 -0.95956,1.91995 q -3.3599,0 -11.03989,-0.47999 Q 397.92504,1.95337 389.76506,1.47339 381.60487,0.9934 373.92488,0.51341 366.24489,0.03343 362.88499,0.03343 h -9.11995 q -3.36011,0 -11.0401,0.47998 -7.67999,0.47999 -15.83997,0.95998 -8.15998,0.47998 -15.83997,0.95997 -7.68,0.47999 -11.0401,0.47999 l -0.9596,-1.91995 1.4404,-8.64 2.4002,-1.91995 q 7.67995,0 14.39997,-0.47999 6.72001,-0.95997 11.03989,-4.32 3.8401,-3.36001 7.20001,-8.64 3.84009,-5.28 4.80007,-18.72001 0,-3.35999 0,-7.67999 0.48082,-4.80001 0.48082,-11.52001 0.48082,-6.72 0.48082,-16.31999 0,-9.6 0,-24.00001 v -97.43998 q 0,-16.80001 0,-28.32001 0,-11.52001 -0.48082,-19.68 0,-8.16 -0.48082,-13.92001 0,-5.76 -0.48082,-11.51998 -0.95956,-12.48 -4.32009,-18.24001 -3.3599,-5.76 -7.2,-9.12 -4.31988,-3.36 -11.0399,-3.84 -6.72001,-0.95999 -14.40003,-0.95999 l -2.4001,-1.92001 -1.4404,-8.64 0.9596,-1.92 q 3.3601,0 11.04007,0.48 7.67999,0.48001 15.83997,0.96 8.15997,0.48 15.83996,0.95999 7.67999,0.48001 11.04011,0.48001 h 9.11995 q 3.3599,0 11.03989,-0.48001 7.67999,-0.48001 15.84018,-0.95999 8.15997,-0.48001 15.83996,-0.96 7.67999,-0.48 11.0399,-0.48 z"
       style="font-style:normal;font-variant:normal;font-weight:normal;font-stretch:normal;font-size:33.33333206px;line-height:0.55000001;font-family:Quattrocento;-inkscape-font-specification:Quattrocento;text-align:start;letter-spacing:0px;word-spacing:0px;text-anchor:start;fill:#ffffff;fill-opacity:1;stroke:none;stroke-opacity:1"
       id="path4747"
       inkscape:connector-curvature="0" />
    <path
       d="m 524.15708,-179.48654 q 12.48007,-20.63999 32.15992,-34.55999 19.68007,-13.92 48.96007,-13.92 13.44004,0 26.88007,3.83999 13.43983,3.84 24.47993,11.99999 11.51988,8.16 18.71989,21.12001 7.67999,12.48 10.08013,29.76001 1.44037,12.48 1.44037,26.4 0.48082,13.92 0.48082,27.83998 0,17.28001 0,35.04 0.48082,17.28001 0.48082,34.56 0.95956,11.04 2.39993,16.32002 1.44038,4.79998 4.32009,7.19998 4.32008,3.84001 11.52009,4.80001 7.67999,0.47998 15.35998,0.47998 l 1.44037,1.91995 0.95956,6.72 -0.95956,1.91994 Q 714.71959,0.99336 704.63946,0.51337 694.55953,0.03339 684.9596,0.03339 q -18.24011,0 -33.1201,1.43996 l -3.35991,-4.79999 q 1.91912,-6.24001 2.87992,-16.32002 0.95956,-10.07998 1.44038,-17.75999 0.95955,-20.15999 1.44037,-39.35999 0.48082,-19.68 0.48082,-32.64001 0,-11.04 -0.95956,-23.99999 -0.48081,-12.96 -2.87991,-22.56 -4.80008,-22.56001 -19.68007,-33.60001 -14.87999,-11.03999 -34.55985,-11.03999 -15.83997,0 -29.75999,6.71999 -13.44004,6.72 -23.03997,16.8 -9.60015,9.6 -15.36019,20.64 -5.27985,10.56001 -5.27985,18.24 v 54.24001 q 0,10.55999 0,17.27998 0,6.72002 0,11.52001 0.48082,4.80001 0.95956,9.12001 0.48081,3.84 0.95955,8.63999 0.95956,10.08 1.91912,15.36 1.44037,4.80001 5.28005,8.15999 3.83989,3.36001 10.55991,4.32001 7.20001,0.95997 14.40001,0.95997 l 2.40014,2.39999 0.95956,6.23999 -0.95956,1.91995 q -3.36011,0 -10.08013,-0.47999 -6.72002,-0.47998 -14.40001,-0.95997 -7.67999,0 -14.40001,-0.47999 -6.72001,0 -10.07992,0 h -6.72002 q -3.3599,0 -10.5599,0 -6.72002,0.47999 -14.40001,0.47999 -7.20001,0.47999 -14.40001,0.95997 -6.72002,0.47999 -10.08013,0.47999 l -0.48082,-1.91995 0.48082,-6.71999 1.92119,-1.91995 q 7.67999,0 14.88,-0.47998 7.67999,-0.95998 11.51988,-4.80001 3.8401,-3.35999 4.80007,-8.63999 1.44038,-5.28002 2.39993,-14.88001 0.48082,-7.67999 0.95956,-15.36 0.48082,-8.16 0.48082,-25.43999 v -59.04001 q 0,-10.07999 0,-16.8 0,-7.19999 -0.48082,-12.48 0,-5.28 -0.48082,-9.6 0,-4.32 -0.48082,-9.11999 -0.95955,-5.28 -2.87992,-9.11999 -1.91911,-4.32001 -3.36011,-5.76001 -4.79986,-5.76 -11.99987,-6.71999 -7.2,-1.43996 -14.87999,-1.43996 l -1.92119,-1.91995 v -6.72002 l 1.92119,-1.43995 h 8.63996 q 8.15998,0 20.64004,0 12.47986,-0.47999 21.60001,-1.91995 l 16.79994,-2.39999 2.87992,4.32 q -2.39993,6.23999 -3.3599,17.27999 -0.95956,10.56001 -1.44038,20.63999 z"
       style="font-style:normal;font-variant:normal;font-weight:normal;font-stretch:normal;font-size:33.33333206px;line-height:0.55000001;font-family:Quattrocento;-inkscape-font-specification:Quattrocento;text-align:start;letter-spacing:0px;word-spacing:0px;text-anchor:start;fill:#ffffff;fill-opacity:1;stroke:none;stroke-opacity:1"
       id="path4749"
       inkscape:connector-curvature="0" />
    <path
       d="m 873.29701,-198.20655 h -62.39989 q 0,31.20001 -0.48082,57.60001 0,26.4 0,46.55999 0,19.68001 -0.48082,31.68 0,12.00001 0,14.88002 0,18.71998 7.1998,24.95999 7.2,6.23999 16.80014,6.23999 8.15998,0 18.71989,-2.88 11.0401,-3.35999 17.76012,-7.2 l 4.31988,3.36001 -4.31988,13.43999 q -11.0401,7.68001 -24.96013,11.04 -13.43982,3.84 -23.99994,3.84 -24.47993,0 -34.56006,-13.44 -10.07992,-13.43999 -10.07992,-34.56 0,-4.32 0.48082,-17.75999 0.48082,-13.44 0.95955,-33.60001 0.48082,-20.15999 0.95956,-46.55999 0.48082,-26.4 0.48082,-57.60001 h -34.55985 l -1.91912,-2.39999 v -9.11999 l 1.91912,-1.91995 34.55985,-6.71999 q 0,-16.80001 -0.95956,-34.08002 -0.48082,-17.75999 -1.44037,-34.55999 l 3.36011,-2.88 6.71981,-0.48 q 3.8401,-0.48001 12.48006,-1.92001 8.63997,-1.44 12.00008,-3.36 l 4.31988,1.92001 q -1.44038,6.72 -2.39994,15.84001 -0.95955,8.64 -1.91911,18.71999 -0.48082,10.08 -0.95956,20.63999 0,10.56002 0,20.16002 l 62.3999,-2.88001 2.39993,1.91995 v 18.71999 z"
       style="font-style:normal;font-variant:normal;font-weight:normal;font-stretch:normal;font-size:33.33333206px;line-height:0.55000001;font-family:Quattrocento;-inkscape-font-specification:Quattrocento;text-align:start;letter-spacing:0px;word-spacing:0px;text-anchor:start;fill:#ffffff;fill-opacity:1;stroke:none;stroke-opacity:1"
       id="path4751"
       inkscape:connector-curvature="0" />
    <path
       d="m 1118.1796,-129.08655 -7.68,3.36001 q -25.9201,0 -53.2802,0.47998 -27.3598,0.47999 -53.7599,0.47999 h -56.64006 q -0.48082,3.36001 -0.48082,6.72 0,2.88 0,5.76 0,18.24 5.28006,35.04001 5.28005,16.31999 16.31995,28.79999 11.52009,12.48 29.28,20.16001 17.76017,7.2 43.20007,7.2 14.88,0 31.6801,-2.88 17.2799,-3.36001 31.6799,-11.52 l 4.7999,2.88 v 8.64 l -4.7999,5.28 q -11.5201,9.11999 -32.6401,16.8 -21.1198,7.19998 -47.0399,7.19998 -25.4399,0 -46.55993,-8.15999 -20.64004,-8.63999 -36.00002,-23.99999 -14.87999,-15.36 -23.51995,-36.48 -8.16019,-21.12001 -8.16019,-47.04 0,-26.4 8.64017,-47.99999 8.63997,-21.60001 23.51996,-36.96002 15.35998,-15.36 35.52003,-23.99998 20.63983,-8.64001 44.16003,-8.64001 12.4798,0 27.8398,3.35999 15.8402,3.36001 30.2402,12.96001 14.4,9.11999 25.9199,26.4 11.5201,16.8 15.8399,44.64 z m -96,-77.27999 q -15.36,0 -27.84005,5.27999 -12.00008,4.80001 -21.60002,13.44002 -9.11995,8.15999 -15.35998,19.67998 -5.76004,11.04002 -8.15997,23.52002 h 18.71988 q 25.9201,0 50.40004,-0.47999 24.4801,-0.95997 51.36,-2.39999 6.24,-0.47999 8.16,-3.36001 2.4001,-2.88 2.4001,-6.72 0,-2.88 -0.4808,-5.27999 -0.4808,-2.40002 -1.4404,-4.80001 -5.2798,-18.24001 -19.6798,-28.31999 -14.4,-10.56001 -36.48,-10.56001 z"
       style="font-style:normal;font-variant:normal;font-weight:normal;font-stretch:normal;font-size:33.33333206px;line-height:0.55000001;font-family:Quattrocento;-inkscape-font-specification:Quattrocento;text-align:start;letter-spacing:0px;word-spacing:0px;text-anchor:start;fill:#ffffff;fill-opacity:1;stroke:none;stroke-opacity:1"
       id="path4753"
       inkscape:connector-curvature="0" />
    <path
       d="m 1212.4469,-69.24655 q -25.9198,-9.6 -37.4399,-30.24 -11.5199,-20.63999 -11.5199,-45.59999 0,-17.76 6.24,-33.60001 6.2398,-15.83999 17.7599,-27.35999 12.0001,-11.99999 28.3201,-18.71999 16.7999,-6.72002 37.9199,-6.72002 12.4801,0 24.4799,2.40002 12.4801,2.39999 21.6001,6.71999 20.16,-0.47998 37.4399,-2.39999 17.7602,-1.91995 33.1201,-6.24001 l 2.4,1.91994 -3.3599,26.4 -2.4002,2.4 -43.68,-1.91995 -0.4808,1.43996 q 12.4801,10.08001 18.2401,26.4 5.76,16.32 5.76,31.68 0,15.84001 -6.24,30.24002 -5.76,14.39998 -17.2801,25.43998 -11.5199,10.56001 -28.7998,17.28001 -17.2802,6.23999 -39.8401,6.23999 -3.8399,0 -9.6,0 -5.76,-0.47999 -9.6001,-0.47999 -8.16,3.35999 -12.4799,9.11999 -3.8401,5.76001 -3.8401,9.6 0,4.80001 6.2401,8.64001 6.72,3.35999 21.12,4.79999 l 46.5599,4.80001 q 15.84,1.91994 29.28,6.71999 13.92,4.80001 24.0002,12.96001 10.5599,7.67999 16.3199,18.71999 5.7601,11.52001 5.7601,26.4 0,13.92 -6.2401,27.84 -6.24,14.40001 -18.7201,25.44001 -12.48,10.55999 -34.56,17.27999 -22.08,6.71999 -50.8798,6.71999 -25.9201,0 -45.1202,-5.75998 -18.7199,-5.28002 -31.6799,-14.88001 -12.4801,-9.12 -18.7199,-21.11999 -6.2401,-11.52 -6.2401,-24 0,-20.16002 12.9599,-36 13.44,-15.36 34.0801,-21.60001 l 0.4808,-1.43996 q -10.5599,-4.31999 -16.8,-10.56 -6.24,-6.71999 -6.24,-16.31999 0,-12.48 10.0799,-20.16001 10.0802,-7.67999 21.6,-10.55999 z m 43.2001,-14.39999 q 13.44,0 23.5199,-4.80001 10.5601,-4.79999 17.7601,-12.95998 7.2,-8.16002 11.0399,-18.72001 3.8401,-11.04 3.8401,-22.56001 0,-11.99999 -3.8401,-23.99998 -3.8399,-12.00002 -11.5198,-21.60002 -7.2,-9.59999 -18.2402,-15.83998 -11.0398,-6.24001 -25.4399,-6.24001 -13.92,0 -24.4801,5.76 -10.0799,5.76 -17.2799,14.87999 -6.72,9.12002 -10.0799,20.64 -3.3601,11.04 -3.3601,22.08 0,11.52 3.3601,23.04001 3.8399,11.04 11.0399,20.15999 7.6799,9.12001 18.2401,14.88002 11.0399,5.27999 25.4399,5.27999 z m -15.36,82.08 q -13.4401,0.47999 -23.52,4.79999 -10.0799,4.32001 -17.2799,10.56 -6.72,6.72001 -10.0801,14.4 -3.3599,8.16 -3.3599,15.84001 0,18.23998 20.1598,29.75999 20.1601,11.52001 54.7201,11.52001 15.84,0 29.28,-2.88001 13.4401,-2.39999 23.04,-8.15999 10.0799,-5.28 15.84,-13.44 5.76,-7.68001 5.76,-18.24 0,-11.52001 -5.76,-18.72001 -5.2801,-7.2 -14.4,-11.99999 -8.64,-4.32 -20.1599,-6.72 -11.0401,-1.91994 -22.0802,-3.36001 z"
       style="font-style:normal;font-variant:normal;font-weight:normal;font-stretch:normal;font-size:33.33333206px;line-height:0.55000001;font-family:Quattrocento;-inkscape-font-specification:Quattrocento;text-align:start;letter-spacing:0px;word-spacing:0px;text-anchor:start;fill:#ffffff;fill-opacity:1;stroke:none;stroke-opacity:1"
       id="path4755"
       inkscape:connector-curvature="0" />
    <path
       d="m 1467.7395,-169.88654 q 4.7999,-9.12001 10.56,-19.19999 6.24,-10.08001 13.92,-18.72001 7.68,-8.64001 17.2799,-14.39999 10.0801,-5.76 22.5602,-5.76 8.64,0 19.1999,2.88 11.0401,2.39999 14.88,6.71999 l 3.8401,4.32001 -5.7601,36.95999 h -15.84 q -1.4403,-6.72 -7.6799,-11.99999 -5.7601,-5.76001 -18.2401,-5.76001 -11.9999,0 -22.08,7.20001 -10.08,6.71999 -17.76,17.27998 -7.2,10.56002 -11.52,22.56001 -3.8399,11.52001 -3.8399,21.12 v 42.72 q 0,10.55999 0,17.27999 0.4808,6.24001 0.4808,11.04 0.4808,4.32 0.4808,7.68001 0.4808,2.88 0.4808,6.23999 l 0.4808,4.32 q 0.9596,7.2 1.9191,13.92 1.4404,6.24001 5.2801,9.6 2.3999,1.91994 6.72,2.88 4.7999,0.95997 9.6,1.43996 5.28,0.47999 10.0801,0.95997 4.7999,0 7.68,0 l 2.3999,2.4 0.9596,6.23999 -0.9596,1.91994 q -3.3601,0 -11.0401,-0.47998 -7.2,-0.47999 -15.36,-0.95998 -8.1599,0 -15.8399,-0.47998 -7.2,0 -10.5599,0 h -11.5201 q -3.3599,0 -10.5599,0 -6.7201,0.47998 -14.4001,0.47998 -7.6799,0.47999 -14.8799,0.95998 -6.7201,0.47998 -10.0802,0.47998 l -0.4808,-1.91994 0.4808,-6.72 1.9191,-1.91995 q 7.68,0 14.88,-0.47998 7.68,-0.95998 11.5199,-4.80001 3.8401,-3.35999 4.8001,-8.63999 1.4404,-5.28001 2.3999,-14.88001 l 0.4808,-4.32 q 0.4809,-4.79999 0.4809,-12 0.4808,-7.2 0.4808,-24.47999 v -59.04001 q 0,-10.07998 0,-16.8 0,-7.19998 -0.4808,-12.48 0,-5.28 -0.4809,-9.6 0,-4.32 -0.4808,-9.11999 -0.9595,-5.28 -2.8799,-9.11999 -1.9191,-4.32 -3.3601,-5.76 -4.7999,-5.76001 -11.9999,-6.72 -7.2,-1.43996 -14.88,-1.43996 l -1.9191,-1.91995 v -6.72008 l 1.9191,-1.43995 h 8.64 q 8.16,0 20.64,0 12.4799,-0.47999 21.6,-1.91995 l 16.8,-2.39999 2.8799,4.32 q -2.8799,10.08 -4.3199,23.03999 -0.9595,12.96001 -0.9595,24.96 z"
       style="font-style:normal;font-variant:normal;font-weight:normal;font-stretch:normal;font-size:33.33333206px;line-height:0.55000001;font-family:Quattrocento;-inkscape-font-specification:Quattrocento;text-align:start;letter-spacing:0px;word-spacing:0px;text-anchor:start;fill:#ffffff;fill-opacity:1;stroke:none;stroke-opacity:1"
       id="path4757"
       inkscape:connector-curvature="0" />
    <path
       d="m 1699.677,1.95346 q -3.3601,0 -10.0799,-0.47999 -6.72,-0.47999 -14.4,-0.95997 -7.68,0 -14.4,-0.47999 -6.72,0 -10.0801,0 h -6.72 q -3.3599,0 -10.56,0 -6.72,0.47999 -14.4,0.47999 -7.2,0.47998 -14.4,0.95997 -6.72,0.47999 -10.0799,0.47999 l -0.4808,-1.91995 0.4808,-6.71999 1.9191,-1.91995 q 7.68,0 14.88,-0.47999 7.68,-0.95997 11.5199,-4.80001 3.8401,-3.35998 4.8001,-8.63998 1.4403,-5.28002 2.3999,-14.88002 0.4808,-7.67999 0.9596,-15.36 0.4808,-8.15999 0.4808,-25.43998 v -59.04001 q 0,-10.07999 0,-16.80001 0,-7.19998 -0.4808,-12.48 0,-5.27999 -0.4809,-9.59999 0,-4.32001 -0.4808,-9.11999 -0.9595,-5.28 -2.8799,-9.12 -1.9191,-4.32 -3.3599,-5.76 -4.8001,-5.76 -12.0001,-6.72 -7.2,-1.43995 -14.88,-1.43995 l -1.9191,-1.91995 v -6.72023 l 1.9191,-1.43995 h 8.64 q 8.16,0 20.64,0 12.4801,-0.47999 21.6,-1.91995 l 16.8,-2.39999 2.8801,4.32 q -0.9595,1.91994 -1.9191,6.71999 -0.4808,4.80001 -0.9596,10.56 0,5.28001 -0.4808,10.56001 0,5.27999 0,8.16 0,3.83999 -0.4808,7.67999 0,3.36001 0,8.15999 0,4.80001 -0.4808,11.52001 0,6.72 0,17.28001 v 53.75999 q 0,10.56 0,17.27999 0.4808,6.72002 0.4808,11.52001 0.4808,4.80001 0.4808,9.12001 0.4808,3.84 0.9596,8.63998 0.9595,10.08001 1.9212,15.36001 1.4403,4.8 5.2798,8.15999 3.8401,3.36001 10.5601,4.32001 7.2,0.95997 14.4,0.95997 l 2.4,2.39999 0.9595,6.23999 z m -80.64,-304.8 q 0,-9.6 6.2401,-16.32 6.72,-7.2 16.3199,-7.2 9.6,0 16.32,7.2 7.2,6.72 7.2,16.32 0,9.6 -7.2,16.32 -6.72,6.24001 -16.32,6.24001 -9.5999,0 -16.3199,-6.24001 -6.2401,-6.72 -6.2401,-16.32 z"
       style="font-style:normal;font-variant:normal;font-weight:normal;font-stretch:normal;font-size:33.33333206px;line-height:0.55000001;font-family:Quattrocento;-inkscape-font-specification:Quattrocento;text-align:start;letter-spacing:0px;word-spacing:0px;text-anchor:start;fill:#ffffff;fill-opacity:1;stroke:none;stroke-opacity:1"
       id="path4759"
       inkscape:connector-curvature="0" />
    <path
       d="m 1852.9846,-198.20655 h -62.4001 q 0,31.20001 -0.4808,57.60001 0,26.4 0,46.55999 0,19.68001 -0.4808,31.68 0,12.00001 0,14.88002 0,18.71998 7.2,24.95999 7.2,6.23999 16.7999,6.23999 8.16,0 18.7201,-2.88 11.0399,-3.35999 17.7599,-7.2 l 4.3201,3.36001 -4.3201,13.43999 q -11.0399,7.68001 -24.9599,11.04 -13.44,3.84 -23.9999,3.84 -24.4802,0 -34.5601,-13.44 -10.0799,-13.43999 -10.0799,-34.56 0,-4.32 0.4808,-17.75999 0.4808,-13.44 0.9596,-33.60001 0.4808,-20.15999 0.9595,-46.55999 0.4808,-26.4 0.4808,-57.60001 h -34.56 l -1.9191,-2.39999 v -9.11999 l 1.9191,-1.91995 34.56,-6.71999 q 0,-16.80001 -0.9595,-34.08002 -0.4808,-17.75999 -1.4404,-34.55999 l 3.3599,-2.88 6.72,-0.48 q 3.8401,-0.48001 12.4801,-1.92001 8.6399,-1.44 11.9998,-3.36 l 4.3201,1.92001 q -1.4403,6.72 -2.3999,15.84001 -0.9596,8.64 -1.9212,18.71999 -0.4808,10.08 -0.9596,20.63999 0,10.56002 0,20.16002 l 62.4002,-2.88001 2.3999,1.91995 v 18.71999 z"
       style="font-style:normal;font-variant:normal;font-weight:normal;font-stretch:normal;font-size:33.33333206px;line-height:0.55000001;font-family:Quattrocento;-inkscape-font-specification:Quattrocento;text-align:start;letter-spacing:0px;word-spacing:0px;text-anchor:start;fill:#ffffff;fill-opacity:1;stroke:none;stroke-opacity:1"
       id="path4761"
       inkscape:connector-curvature="0" />
    <path
       d="m 1887.1471,109.95345 q 6.72,0 12.4799,-0.47998 6.24,-0.47999 12,-2.4 5.7601,-1.43996 11.0401,-5.27999 5.7599,-3.84 12.4799,-10.56002 9.1199,-9.59999 15.84,-20.63999 6.72,-10.56 11.0401,-21.59999 l 15.3599,-38.88 -33.1201,-86.88 q -1.9191,-4.32 -6.7198,-15.84 -4.32,-11.52001 -10.0801,-25.44001 -5.76,-14.39999 -11.9999,-29.27998 -5.76,-14.88002 -10.0801,-26.4 -4.7999,-11.52001 -8.64,-18.24001 -4.8,-7.68001 -11.0401,-12.00001 -5.7598,-4.31998 -15.8399,-5.27999 l -2.8799,-2.4 v -6.72 l 1.9191,-1.91994 q 8.1599,0.95997 17.2801,1.91994 9.12,0.95998 16.7999,0.95998 h 18.7199 q 7.68,0 18.2401,-0.95998 11.0399,-0.95997 20.6401,-1.91994 l 1.9191,1.91994 v 5.76001 l -1.9191,1.91994 q -10.5601,0.95998 -17.7601,5.76001 -6.7201,4.32 -6.7201,12.96 0,5.76001 4.3201,20.64 4.8001,14.40001 10.5599,31.19999 5.7601,16.32002 11.0401,30.72 5.2801,14.40001 7.2,18.72001 l 24,62.4 22.56,-55.19999 q 3.3601,-8.16002 9.1199,-22.08002 5.7601,-13.91998 11.5201,-29.75999 5.76,-15.84001 9.5999,-30.72 4.3201,-15.36001 4.3201,-25.92 0,-10.56001 -7.68,-13.92 -7.68,-3.83999 -17.2801,-4.80001 l -1.9191,-1.91994 v -5.76001 l 1.9191,-1.91994 q 18.7201,2.88 35.04,2.88 h 19.6801 q 8.16,0 15.36,-0.95997 7.68,-0.95998 16.7999,-1.91995 l 1.9212,1.91995 v 6.71999 l -2.4001,2.4 q -8.64,0.95997 -13.44,4.80001 -4.3199,3.83999 -9.6,12.48 -4.3199,7.67999 -10.0799,19.19999 -5.2801,11.52001 -11.0401,24.96 -5.2799,13.44 -11.0399,27.36 -5.2801,13.92 -10.0801,25.91999 -4.3199,12.00001 -7.68,21.12001 -2.8799,8.64 -4.3199,12.00001 l -47.0401,117.11999 q -12.4799,31.20001 -34.0799,46.08 -21.12,15.36 -46.0801,21.59999 -4.7999,0.95997 -8.64,0.95997 -3.8399,0.47999 -8.64,0.47999 l -3.8399,-0.95997 -0.9595,-11.52001 z"
       style="font-style:normal;font-variant:normal;font-weight:normal;font-stretch:normal;font-size:33.33333206px;line-height:0.55000001;font-family:Quattrocento;-inkscape-font-specification:Quattrocento;text-align:start;letter-spacing:0px;word-spacing:0px;text-anchor:start;fill:#ffffff;fill-opacity:1;stroke:none;stroke-opacity:1"
       id="path4763"
       inkscape:connector-curvature="0" />
    <path
       d="m 2458.6696,5.31345 -70.5601,-199.67998 -28.7998,79.19998 q -6.2401,17.28001 -13.4401,35.52001 -7.2,17.76 -13.92,34.07999 -6.24,15.84001 -11.0401,28.32001 -4.7999,11.99999 -6.72,17.27999 l -53.7599,5.28 h -5.7601 l -74.8799,-208.31999 q -5.2801,-14.4 -9.12,-24 -3.3601,-9.6 -6.24,-16.32 -2.4,-6.71999 -4.3201,-11.04 -1.9191,-4.32 -3.3599,-8.15999 -5.2801,-12.00002 -11.0401,-18.24001 -5.2799,-6.72 -11.0399,-9.6 -5.7601,-3.36 -12.0001,-3.84 -5.7598,-0.48 -11.9999,-0.48 l -2.4001,-1.92001 -0.9596,-18.24 0.4809,-1.92001 q 3.3601,0.48001 9.6001,0.95999 6.72,0.48001 13.92,0.96 7.1998,0.48001 13.9198,0.95999 6.7201,0 10.0802,0 h 35.52 q 3.3599,0 11.0399,-0.48001 7.68,-0.48 15.84,-0.95999 8.6399,-0.48001 16.3199,-0.95999 7.6802,-0.48001 11.0401,-0.48001 l 0.9596,1.92001 -1.4404,18.24 -2.3999,1.92 q -13.92,0 -21.6,3.36001 -7.68,2.87999 -7.68,16.79999 0,11.04 7.2,31.20001 7.68,19.68001 18.7199,49.92 l 29.28,78.72 q 8.1599,19.19999 13.44,36.95999 5.2801,17.28001 10.5599,28.80001 3.8401,-11.04 10.5601,-27.84 6.72,-17.28001 14.4,-37.92 l 29.28,-78.72 q 15.84,-41.76 15.84,-65.76001 0,-19.19999 -8.64,-27.36 -8.6399,-8.16 -34.08,-8.16 l -2.4,-1.92 -0.9595,-18.24 0.4808,-1.92001 q 3.3599,0.48001 10.5599,0.95999 7.68,0.48001 15.36,0.96 8.16,0.48 15.36,0.95999 7.68,0 11.0401,0 h 35.52 q 3.3599,0 10.0799,-0.48001 7.2,-0.48 14.4,-0.95999 7.68,-0.48001 14.4,-0.95999 7.2,-0.48001 10.5599,-0.48001 l 0.9596,1.92001 -1.4404,18.24 -2.3999,1.92 q -13.92,0 -21.6,3.36 -7.68,2.88 -7.68,16.8 0,11.04 5.2801,31.20001 5.2798,19.68001 15.8399,49.92 l 27.3601,78.72 q 6.72,19.68 12.4798,36.48 5.7601,16.8 11.5201,28.31999 3.3599,-11.04 9.12,-27.84 5.76,-16.8 12.96,-36.95999 l 27.3601,-78.72 q 10.5599,-29.76001 16.7999,-49.92 6.24,-20.16001 6.24,-31.20001 0,-13.92 -7.6799,-16.8 -7.68,-3.36 -21.6001,-3.36 l -2.4001,-1.92 -0.9596,-18.24 0.9596,-1.92001 q 3.3601,0.48001 10.5601,0.95999 7.2,0.48001 14.88,0.96 7.68,0.48 14.88,0.95999 7.2,0 10.5599,0 h 28.32 q 3.3602,0 9.6002,-0.48001 6.7198,-0.48 13.9198,-0.95999 7.2,-0.48001 13.92,-0.95999 6.72,-0.48001 10.0802,-0.48001 l 0.9595,1.92001 -1.4404,18.24 -2.4001,1.92 q -6.24,0 -11.9999,0.48001 -5.76,0.48001 -11.5201,3.84 -5.28,2.88 -11.0399,9.6 -5.28,6.23999 -11.0401,18.24 -0.9595,2.4 -1.9191,4.79999 -0.9595,2.40002 -3.3601,7.68001 -1.9191,4.79999 -5.2798,13.92001 -3.3601,9.11999 -9.1202,24.95999 -5.7598,15.36001 -14.4,38.88 -8.64,23.52 -20.6398,57.11999 -5.7601,16.8 -12.4801,35.04 -6.24,17.76 -12.0001,34.08001 -5.7598,15.83999 -10.0799,28.31999 -4.3201,12.48 -5.76,17.76 l -53.76,5.27999 z"
       style="font-style:normal;font-variant:normal;font-weight:bold;font-stretch:normal;font-size:33.33333206px;line-height:0.55000001;font-family:Quattrocento;-inkscape-font-specification:'Quattrocento Bold';text-align:start;letter-spacing:0px;word-spacing:0px;text-anchor:start;fill:#007dc7;fill-opacity:1;stroke:#007dc7;stroke-width:20.81467438;stroke-opacity:1"
       id="path4765"
       inkscape:connector-curvature="0" />
    <path
       d="m 2848.212,-122.36653 -11.5201,8.63998 q -25.9199,0 -51.36,0.47999 -24.9599,0.47998 -51.36,0.47998 h -39.3599 q -0.4808,3.35999 -0.4808,6.72 0,2.88 0,5.76 0,12.48 4.3201,24.96 4.3198,12.48 13.4398,22.55999 9.6001,9.6 24.0001,15.84001 14.4001,5.76 35.0399,5.76 14.88,0 31.2001,-3.84 16.8,-4.32 31.2,-11.04 l 8.16,3.35999 v 17.28001 l -4.8001,5.28 q -11.5199,9.11999 -34.0799,17.27999 -22.08,8.15999 -48.0001,8.15999 -25.4399,0 -46.5599,-8.15999 -20.64,-8.63999 -36,-23.99999 -14.88,-15.36 -23.52,-36.48 -8.1599,-21.12001 -8.1599,-47.04 0,-26.4 8.6399,-47.99999 8.64,-21.60002 23.52,-36.96002 15.36,-15.36 35.52,-23.99998 20.64,-8.64001 44.16,-8.64001 12.4801,0 27.84,3.35999 15.84,3.36001 30.24,12.96001 14.4,9.11999 25.9199,26.4 11.5201,16.8 15.84,44.64 z m -95.52,-69.60001 q -23.5199,0 -37.9199,14.39999 -13.9201,13.92 -17.7602,32.64001 h 24.0002 q 16.7999,0 33.1199,-0.47999 16.3199,-0.95997 33.1201,-0.95997 6.24,0 9.1199,-3.36001 2.8799,-3.83999 2.8799,-7.67999 0,-14.4 -13.92,-24.47999 -13.9198,-10.08 -32.6399,-10.08 z"
       style="font-style:normal;font-variant:normal;font-weight:bold;font-stretch:normal;font-size:33.33333206px;line-height:0.55000001;font-family:Quattrocento;-inkscape-font-specification:'Quattrocento Bold';text-align:start;letter-spacing:0px;word-spacing:0px;text-anchor:start;fill:#007dc7;fill-opacity:1;stroke:#007dc7;stroke-width:20.81467438;stroke-opacity:1"
       id="path4767"
       inkscape:connector-curvature="0" />
    <path
       d="m 2961.882,-38.36654 q 0,9.59999 1.9191,17.28001 1.9212,7.67999 3.8401,12.95998 l -2.8801,8.16 h -22.08 q -4.7999,0 -13.92,0 -8.64,0.47999 -18.7199,0.47999 -10.08,0.47998 -19.2001,0.95997 -8.64,0.47998 -13.44,0.47998 l -0.4809,-1.91994 0.9596,-16.32 1.4404,-1.91994 q 6.72,0 13.44,-0.47999 6.7198,-0.95997 10.5599,-4.80001 3.8401,-3.35998 5.7601,-8.64 1.9191,-5.28 1.9191,-14.88 v -6.23999 q 0,-4.32 0,-8.15999 0.4808,-3.84002 0.4808,-9.6 0,-6.24001 0,-15.84001 0.4808,-9.6 0.4808,-25.44001 v -110.39999 q 0,-19.68 -0.4808,-32.63999 0,-12.96 -0.4808,-22.08002 0,-9.11999 -0.4808,-15.83999 0,-6.72 -0.4809,-14.88 -0.4808,-5.28 -3.3601,-9.6 -2.8799,-4.32 -4.7998,-5.75999 -6.2401,-5.28 -13.4401,-6.24 -6.72,-1.44001 -14.4,-1.44001 l -1.9191,-1.92 v -15.84006 l 1.9191,-1.92001 h 24 q 11.0401,0 24.9601,0 13.92,-0.48 23.5199,-1.92 l 16.8,-2.4 2.8801,9.12 q -0.9596,1.92001 -1.9212,7.2 -0.4808,4.8 -0.9595,10.56 -0.4809,5.76 -0.9596,11.04 0,5.28 0,8.16 0,7.68 0,13.92 0,5.76 -0.4808,13.91999 0,8.15999 0,20.63999 0,12.00002 0,32.16001 0,20.63999 -0.4808,30.23999 -0.4809,9.12001 -0.9596,14.88002 l 1.4404,0.95997 q 13.92,-20.16001 34.0801,-32.64001 20.1598,-12.95999 45.5999,-12.95999 27.3601,0 47.0399,9.6 20.1601,9.6 33.1201,25.43999 12.9601,15.84001 19.1999,36.48 6.24,20.16001 6.24,42.24001 0,32.63999 -10.0799,55.68 -10.0801,22.55999 -25.9201,36.96 -15.36,13.92 -34.0799,20.63999 -18.2401,6.23999 -35.04,6.23999 -23.04,0 -43.68,-10.07998 -20.1601,-10.08001 -35.0401,-34.56 z m 129.1201,-74.4 q 0,-14.4 -3.8401,-27.84 -3.3599,-13.92 -10.5599,-24.48001 -7.2,-11.04 -18.7201,-17.27999 -11.0399,-6.71999 -26.4001,-6.71999 -16.32,0 -29.28,5.76 -12.4799,5.27999 -21.5998,13.43999 -8.6402,7.67999 -13.92,16.32 -4.8001,8.64 -5.2801,14.87999 v 53.28001 q 0.9596,6.23999 5.2801,15.36 4.7998,8.64 12.9598,17.27999 8.6402,8.16 21.12,13.92 12.4801,5.76 29.76,5.76 15.84,0 27.3601,-6.71999 11.5201,-7.20001 18.7201,-18.24001 7.68,-11.04 11.0399,-25.43998 3.3601,-14.40001 3.3601,-29.28001 z"
       style="font-style:normal;font-variant:normal;font-weight:bold;font-stretch:normal;font-size:33.33333206px;line-height:0.55000001;font-family:Quattrocento;-inkscape-font-specification:'Quattrocento Bold';text-align:start;letter-spacing:0px;word-spacing:0px;text-anchor:start;fill:#007dc7;fill-opacity:1;stroke:#007dc7;stroke-width:20.81467438;stroke-opacity:1"
       id="path4769"
       inkscape:connector-curvature="0" />
    <path
       d="m 322.56447,219.07584 q 0,8.95999 3.20005,15.04 3.20004,5.76 9.59993,10.23998 6.72002,4.48001 16.64008,8.32 10.23999,3.52001 23.99995,7.68001 11.84001,3.84 23.3601,8.64001 11.51988,4.79999 20.47997,12.48 9.28002,7.35998 14.71993,18.23998 5.44012,10.56001 5.44012,25.92001 0,16.32 -6.40009,27.84 -6.39989,11.19999 -16.96001,18.23999 -10.5599,7.04 -24.63999,10.24 -13.75996,3.20001 -29.11994,3.20001 -19.83992,0 -36.16008,-4.48 -16.31995,-4.48001 -29.43989,-11.20001 l -1.2801,-4.16 5.4402,-34.23999 h 7.99986 l 1.60065,1.91995 q 1.60065,19.52 15.6799,28.80001 14.08009,8.95999 38.40016,8.95999 24.95992,0 37.43998,-11.2 12.79998,-11.51999 12.79998,-29.75999 0,-11.2 -4.80007,-18.56001 -4.80007,-7.67999 -12.79998,-12.8 -7.67999,-5.44 -17.91998,-8.95999 -9.92006,-3.52001 -20.16005,-7.04 -12.79998,-4.16 -23.99994,-8.96001 -10.88004,-5.11999 -19.20008,-11.83999 -7.99992,-6.72 -12.80003,-16.00001 -4.4799,-9.27999 -4.4799,-22.08 0,-15.04 5.12,-25.27998 5.43991,-10.56002 14.71992,-16.96001 9.28002,-6.71999 21.43995,-9.6 12.48006,-2.88 26.88007,-2.88 17.27993,0 32.64011,3.20001 15.35998,3.19998 24.95992,7.67999 l 1.2801,3.52001 -4.47994,28.47999 h -8.95988 l -1.60065,-1.60002 q -0.64109,-8.32 -5.44013,-13.44 -4.79986,-5.11999 -11.51988,-7.99999 -6.40009,-2.88 -14.08008,-3.84002 -7.35986,-0.95997 -13.11991,-0.95997 -20.8001,0 -32.64011,9.27999 -11.84001,8.96001 -11.84001,25.92002 z"
       style="font-style:normal;font-variant:normal;font-weight:normal;font-stretch:normal;font-size:15.37376881px;line-height:0.55000001;font-family:Quattrocento;-inkscape-font-specification:Quattrocento;text-align:start;letter-spacing:0px;word-spacing:0px;text-anchor:start;fill:#ffffff;fill-opacity:1;stroke:none;stroke-opacity:1"
       id="path4771"
       inkscape:connector-curvature="0" />
    <path
       d="m 608.25461,295.55582 -5.11999,2.24001 q -17.28014,0 -35.52004,0.31992 -18.2401,0.31993 -35.83995,0.31993 h -37.76011 q -0.32054,2.24001 -0.32054,4.48 0,1.91995 0,3.84 0,12.16001 3.51996,23.35999 3.51997,10.88002 10.88004,19.20002 7.67999,8.32 19.52,13.43999 11.84002,4.79999 28.80002,4.79999 9.91986,0 21.11982,-1.91994 11.52009,-2.24002 21.12002,-7.68002 l 3.20005,1.91995 v 5.76 l -3.20005,3.51999 q -7.67999,6.08001 -21.75987,11.20001 -14.08008,4.8 -31.36001,4.8 -16.96,0 -31.04009,-5.43999 -13.75996,-5.76001 -23.99994,-16.00001 -9.92007,-10.23999 -15.68011,-24.31999 -5.43992,-14.08001 -5.43992,-31.36002 0,-17.59999 5.76005,-31.99998 5.76004,-14.40001 15.6799,-24.64001 10.23999,-10.23999 23.68002,-15.99999 13.75996,-5.76001 29.44007,-5.76001 8.32004,0 18.56003,2.24 10.5599,2.24001 20.15984,8.64 9.60014,6.08001 17.28013,17.59999 7.67999,11.20001 10.55991,29.76001 z m -64.00013,-51.51998 q -10.23998,0 -18.56003,3.51999 -7.99991,3.2 -14.4,8.96001 -6.07997,5.44 -10.23999,13.11999 -3.83989,7.36 -5.43991,15.68 h 12.48006 q 17.27992,0 33.59988,-0.31992 16.31995,-0.64005 34.24014,-1.60002 4.15981,-0.31992 5.43991,-2.23999 1.60065,-1.91995 1.60065,-4.48001 0,-1.91995 -0.32055,-3.51999 -0.32054,-1.60002 -0.95955,-3.20001 -3.51997,-12.15999 -13.11991,-18.87999 -9.59993,-7.04 -24.32007,-7.04 z"
       style="font-style:normal;font-variant:normal;font-weight:normal;font-stretch:normal;font-size:15.37376881px;line-height:0.55000001;font-family:Quattrocento;-inkscape-font-specification:Quattrocento;text-align:start;letter-spacing:0px;word-spacing:0px;text-anchor:start;fill:#ffffff;fill-opacity:1;stroke:none;stroke-opacity:1"
       id="path4773"
       inkscape:connector-curvature="0" />
    <path
       d="m 679.41956,268.35583 q 3.20005,-6.08001 7.03994,-12.80001 4.16002,-6.71999 9.28002,-12.48 5.11999,-5.75998 11.52009,-9.59999 6.72001,-3.84 15.03985,-3.84 5.76004,0 12.80019,1.91995 7.35986,1.60002 9.91986,4.47998 l 2.55999,2.88 -3.83989,24.64002 H 733.1795 q -0.95956,-4.48001 -5.12,-8.00002 -3.83989,-3.83999 -12.15993,-3.83999 -7.99991,0 -14.71993,4.80001 -6.72002,4.47998 -11.84001,11.51998 -4.80007,7.04 -7.67999,15.04 -2.56,7.68001 -2.56,14.08 v 28.48007 q 0,7.04001 0,11.51999 0.32055,4.16 0.32055,7.36001 0.32054,2.88 0.32054,5.11999 0.32055,1.91994 0.32055,4.16 l 0.32055,2.88 q 0.64109,4.80001 1.2801,9.28001 0.95956,4.16 3.51997,6.4 1.60065,1.2801 4.47994,1.91994 3.20005,0.64005 6.4001,0.95997 3.51997,0.31993 6.71981,0.64006 3.20004,0 5.1202,0 l 1.60065,1.60002 0.64109,4.16 -0.64109,1.2801 q -2.23987,0 -7.35986,-0.31992 -4.80008,-0.31992 -10.23999,-0.64005 -5.44012,0 -10.56012,-0.31992 -4.79986,0 -7.03994,0 h -7.67999 q -2.24007,0 -7.03994,0 -4.48015,0.31992 -9.60014,0.31992 -5.11999,0.31992 -9.91986,0.64005 -4.48015,0.31992 -6.72001,0.31992 l -0.32055,-1.2801 0.32055,-4.48 1.2801,-1.2799 q 5.11999,0 9.92006,-0.31992 5.12,-0.64005 7.67999,-3.20001 2.56,-2.23999 3.20005,-5.76 0.95956,-3.51999 1.60065,-9.92 l 0.32055,-2.88 q 0.32054,-3.19999 0.32054,-8 0.32055,-4.79999 0.32055,-16.31999 v -39.36001 q 0,-6.72 0,-11.2 0,-4.79999 -0.32055,-8.32 0,-3.51999 -0.32054,-6.4 0,-2.88 -0.32055,-6.08 -0.64109,-3.51999 -1.92119,-6.07999 -1.28011,-2.88 -2.23987,-3.84 -3.20005,-3.84001 -8.00012,-4.48 -4.79987,-0.95997 -9.91986,-0.95997 l -1.2801,-1.28011 v -4.48 l 1.2801,-0.95997 h 5.75984 q 5.44012,0 13.76016,0 8.31984,-0.31992 14.40001,-1.28011 l 11.19996,-1.60002 1.91911,2.87998 q -1.91911,6.72002 -2.87992,15.36 -0.64109,8.64001 -0.64109,16.64 z"
       style="font-style:normal;font-variant:normal;font-weight:normal;font-stretch:normal;font-size:15.37376881px;line-height:0.55000001;font-family:Quattrocento;-inkscape-font-specification:Quattrocento;text-align:start;letter-spacing:0px;word-spacing:0px;text-anchor:start;fill:#ffffff;fill-opacity:1;stroke:none;stroke-opacity:1"
       id="path4775"
       inkscape:connector-curvature="0" />
    <path
       d="m 827.00455,383.23582 -3.20004,-1.60002 -19.19988,-51.2 q -0.95955,-2.88 -4.16002,-10.55999 -2.88012,-7.68001 -6.72001,-16.96 -3.8401,-9.28 -8.00012,-19.2 -3.8399,-10.24001 -7.03994,-17.92 -3.20005,-7.68001 -5.76005,-12.15999 -3.20005,-5.12002 -7.35986,-8.00002 -3.8401,-2.87998 -10.56012,-3.51999 l -1.91911,-1.60002 v -4.48001 l 1.2801,-1.2801 q 5.44013,0.64005 11.52009,1.2801 6.07997,0.64005 11.19996,0.64005 h 12.48007 q 5.11999,0 12.15993,-0.64005 7.36007,-0.64005 13.75995,-1.2801 l 1.28011,1.2801 v 3.84002 l -1.28011,1.2801 q -7.03993,0.64005 -11.84001,3.83999 -4.47994,2.88001 -4.47994,8.64001 0,3.83999 2.87992,13.76 3.20005,9.6 7.04015,20.8 3.83989,10.87999 7.35986,20.47999 3.52018,9.28 4.80007,12.48 l 15.68011,41.6 15.35998,-36.80001 q 2.23987,-5.44 6.07997,-14.71999 3.83989,-9.28 7.67999,-19.84001 3.83989,-10.55999 6.39988,-20.47999 2.88013,-10.23999 2.88013,-17.27999 0,-7.04 -5.11999,-9.28002 -5.12,-2.55999 -11.52009,-3.19998 l -1.2801,-1.2801 v -3.84002 l 1.2801,-1.2801 q 12.48006,1.91994 23.3601,1.91994 h 13.1199 q 5.44013,0 10.56012,-0.64005 5.43992,-0.64005 11.51988,-1.2801 l 1.2801,1.2801 v 4.48001 l -1.91911,1.60002 q -5.43991,0.64005 -9.59993,3.20001 -3.8399,2.55999 -7.36007,8.32 -2.87992,5.11999 -6.71981,12.79998 -3.52018,7.68001 -7.36007,16.64 -3.51997,8.96001 -7.36007,18.24 -3.51997,9.28002 -6.72002,17.28001 -2.87992,8 -5.11999,14.08001 -1.91911,5.75998 -2.87992,7.99999 l -16.31995,40.95999 z"
       style="font-style:normal;font-variant:normal;font-weight:normal;font-stretch:normal;font-size:15.37376881px;line-height:0.55000001;font-family:Quattrocento;-inkscape-font-specification:Quattrocento;text-align:start;letter-spacing:0px;word-spacing:0px;text-anchor:start;fill:#ffffff;fill-opacity:1;stroke:none;stroke-opacity:1"
       id="path4777"
       inkscape:connector-curvature="0" />
    <path
       d="m 999.04449,382.91582 q -2.24007,0 -6.72001,-0.31992 -4.47994,-0.31992 -9.59994,-0.64005 -5.11999,0 -9.59993,-0.31993 -4.48015,0 -6.72002,0 h -4.48015 q -2.23987,0 -7.03994,0 -4.47994,0.31993 -9.59994,0.31993 -4.80007,0.31992 -9.60014,0.64005 -4.47994,0.31992 -6.71981,0.31992 l -0.32055,-1.2801 0.32055,-4.48001 1.2801,-1.27989 q 5.12,0 9.92007,-0.31992 5.11999,-0.64006 7.67999,-3.20001 2.55999,-2.23999 3.20005,-5.76 0.95955,-3.51999 1.60064,-9.92001 0.32055,-5.11999 0.6411,-10.23998 0.32054,-5.44 0.32054,-16.96001 v -39.36001 q 0,-6.71999 0,-11.2 0,-4.79999 -0.32054,-8.32 0,-3.51999 -0.32055,-6.39999 0,-2.88 -0.32055,-6.08001 -0.63901,-3.51999 -1.91911,-6.07998 -1.2801,-2.88001 -2.23987,-3.84 -3.20004,-3.84002 -8.00012,-4.48 -4.80007,-0.95998 -9.92006,-0.95998 l -1.2801,-1.2801 v -4.48 l 1.2801,-0.95998 h 5.76004 q 5.44013,0 13.75996,0 8.32004,-0.31992 14.40001,-1.2801 l 11.20017,-1.60002 1.91911,2.87998 q -0.64109,1.2801 -1.2801,4.48 -0.32055,3.20001 -0.63901,7.04 0,3.52001 -0.32055,7.04001 0,3.51999 0,5.43999 0,2.56 -0.32055,5.12 0,2.24001 0,5.44 0,3.2 -0.32054,7.68001 0,4.48 0,11.52 v 35.84012 q 0,7.04001 0,11.51999 0.32054,4.48 0.32054,7.68001 0.32055,3.20001 0.32055,6.07999 0.32055,2.56001 0.64109,5.76 0.63901,6.72 1.2801,10.24001 0.95956,3.2 3.52018,5.44 2.56,2.23999 7.03994,2.88 4.80007,0.64005 9.59994,0.64005 l 1.60065,1.60002 0.64109,4.16 z M 945.28456,179.71583 q 0,-6.39999 4.16002,-10.88 4.47995,-4.8 10.88004,-4.8 6.39989,0 10.87983,4.8 4.80007,4.48001 4.80007,10.88 0,6.39999 -4.80007,10.88 -4.47994,4.16 -10.87983,4.16 -6.40009,0 -10.88004,-4.16 -4.16002,-4.48001 -4.16002,-10.88 z"
       style="font-style:normal;font-variant:normal;font-weight:normal;font-stretch:normal;font-size:15.37376881px;line-height:0.55000001;font-family:Quattrocento;-inkscape-font-specification:Quattrocento;text-align:start;letter-spacing:0px;word-spacing:0px;text-anchor:start;fill:#ffffff;fill-opacity:1;stroke:none;stroke-opacity:1"
       id="path4779"
       inkscape:connector-curvature="0" />
    <path
       d="m 1143.1695,268.67583 -1.2801,-0.95997 q 0,-7.36001 -4.48,-11.84001 -4.16,-4.79999 -10.24,-7.36001 -6.0801,-2.55999 -13.1201,-3.51999 -6.72,-0.95997 -11.84,-0.95997 -14.7199,0 -25.6,5.44 -10.5599,5.11999 -17.6,14.08 -7.04,8.63998 -10.5599,20.15999 -3.2001,11.2 -3.2001,23.03999 0,12.16002 3.52,23.36 3.8401,11.2 11.5201,19.84001 7.68,8.64 19.1999,13.75999 11.52,5.12 27.5201,5.12 10.88,0 23.9999,-3.19999 13.4401,-3.52001 23.04,-8.64 l 3.2,3.2 -4.8,8.95999 q -3.52,2.56 -9.28,5.44 -5.44,2.56 -12.4799,5.12001 -7.0401,2.24 -15.36,3.84 -8.0001,1.60002 -16,1.60002 -15.6801,0 -30.0801,-5.43999 -14.0799,-5.76001 -24.9599,-15.68001 -10.5602,-10.24001 -16.96,-24.31999 -6.4001,-14.40001 -6.4001,-31.68002 0,-17.59999 6.4001,-31.99998 6.3998,-14.40001 17.6,-24.64001 11.2,-10.23999 25.9199,-15.99999 15.0401,-5.76001 32.0001,-5.76001 15.3599,0 28.8,3.84 13.7599,3.84001 20.7999,7.68001 l 0.9595,2.88 -3.5199,24.64 z"
       style="font-style:normal;font-variant:normal;font-weight:normal;font-stretch:normal;font-size:15.37376881px;line-height:0.55000001;font-family:Quattrocento;-inkscape-font-specification:Quattrocento;text-align:start;letter-spacing:0px;word-spacing:0px;text-anchor:start;fill:#ffffff;fill-opacity:1;stroke:none;stroke-opacity:1"
       id="path4781"
       inkscape:connector-curvature="0" />
    <path
       d="m 1320.7544,295.55582 -5.12,2.24001 q -17.2799,0 -35.5198,0.31992 -18.2401,0.31993 -35.8401,0.31993 h -37.7599 q -0.3206,2.24001 -0.3206,4.48 0,1.91995 0,3.84 0,12.16001 3.52,23.35999 3.5199,10.88002 10.88,19.20002 7.68,8.32 19.52,13.43999 11.8398,4.79999 28.7998,4.79999 9.9201,0 21.12,-1.91994 11.5201,-2.24002 21.1201,-7.68002 l 3.2,1.91995 v 5.76 l -3.2,3.51999 q -7.68,6.08001 -21.7599,11.20001 -14.0801,4.8 -31.36,4.8 -16.96,0 -31.0401,-5.43999 -13.76,-5.76001 -23.9999,-16.00001 -9.9201,-10.23999 -15.6801,-24.31999 -5.44,-14.08001 -5.44,-31.36002 0,-17.59999 5.7601,-31.99998 5.7598,-14.40001 15.6799,-24.64001 10.24,-10.23999 23.68,-15.99999 13.76,-5.76001 29.4401,-5.76001 8.32,0 18.56,2.24 10.5599,2.24001 20.1598,8.64 9.6002,6.08001 17.2802,17.59999 7.68,11.20001 10.5599,29.76001 z m -63.9999,-51.51998 q -10.24,0 -18.56,3.51999 -7.9999,3.2 -14.4,8.96001 -6.08,5.44 -10.24,13.11999 -3.8399,7.36 -5.4399,15.68 h 12.48 q 17.28,0 33.5999,-0.31992 16.32,-0.64005 34.2399,-1.60002 4.1601,-0.31992 5.4402,-2.23999 1.6006,-1.91995 1.6006,-4.48001 0,-1.91995 -0.3205,-3.51999 -0.3206,-1.60002 -0.9596,-3.20001 -3.52,-12.15999 -13.1199,-18.87999 -9.6001,-7.04 -24.3201,-7.04 z"
       style="font-style:normal;font-variant:normal;font-weight:normal;font-stretch:normal;font-size:15.37376881px;line-height:0.55000001;font-family:Quattrocento;-inkscape-font-specification:Quattrocento;text-align:start;letter-spacing:0px;word-spacing:0px;text-anchor:start;fill:#ffffff;fill-opacity:1;stroke:none;stroke-opacity:1"
       id="path4783"
       inkscape:connector-curvature="0" />
    <path
       d="m 1421.6796,296.83584 q 13.4398,2.87998 21.4399,7.99999 8.3201,4.79999 12.8,10.56 4.48,5.76 5.7601,11.84001 1.6006,5.75998 1.6006,10.87999 0,10.23999 -4.16,18.88 -4.16,8.64 -12.1602,15.03999 -7.6799,6.08001 -18.8799,9.6 -11.2,3.52001 -25.2801,3.52001 -15.6799,0 -29.4398,-3.52001 -13.44,-3.84 -21.4402,-8 l -0.639,-2.88 4.7999,-32.95999 h 7.3601 l 0.9595,1.2801 q 0,15.36 9.5999,24.31999 9.6002,8.64001 27.8401,8.64001 10.88,0 18.2401,-2.56 7.3599,-2.56 11.5199,-6.72 4.4801,-4.16 6.4001,-8.96001 1.9191,-4.79999 1.9191,-9.27999 0,-2.88 -0.3206,-6.39999 -0.3205,-3.84002 -2.5599,-7.36001 -2.2401,-3.83999 -6.7201,-7.04 -4.4801,-3.51999 -12.8,-5.76 l -30.7199,-7.67999 q -10.5601,-2.56 -17.2802,-6.72 -6.72,-4.16 -10.5599,-8.96001 -3.8401,-5.11999 -5.4401,-10.55999 -1.6006,-5.76 -1.6006,-11.52001 0,-10.55999 4.16,-18.56001 4.16,-8.32 11.2002,-13.43999 7.3598,-5.44 16.9598,-7.99999 9.6001,-2.88001 20.8001,-2.88001 15.04,0 27.5199,3.84 12.8,3.84002 19.8401,7.68001 l 0.9596,2.88 -3.52,24.64 h -6.72 l -1.2801,-0.95998 q 0,-7.36 -4.16,-12.16001 -3.8399,-5.12 -9.6,-8 -5.76,-3.2 -12.1599,-4.48 -6.4001,-1.2801 -11.2,-1.2801 -16,0 -23.0402,7.99999 -7.0399,8.00002 -7.0399,17.92002 0,7.35999 4.8001,14.07998 5.12,6.40002 19.52,9.92001 z"
       style="font-style:normal;font-variant:normal;font-weight:normal;font-stretch:normal;font-size:15.37376881px;line-height:0.55000001;font-family:Quattrocento;-inkscape-font-specification:Quattrocento;text-align:start;letter-spacing:0px;word-spacing:0px;text-anchor:start;fill:#ffffff;fill-opacity:1;stroke:none;stroke-opacity:1"
       id="path4785"
       inkscape:connector-curvature="0" />
    <path
       d="m 1438.1051,473.41554 v 0 c -7.5995,-20.8195 -39.9228,-32.153 -75.7939,-28.419 -9.6408,1.8425 -20.9355,3.7109 -30.4444,5.5812 -45.342,15.2151 -276.5504,92.864 -278.4447,94.7343 l -5.7207,2.0077 3.881,3.7188 c 26.5555,20.8033 39.7445,43.6557 32.1295,62.6126 -7.4295,30.258 -45.481,47.3437 -106.06826,51.0613 -56.82211,5.7685 -125.00894,0 -206.5314,-15.0348 7.61495,0 18.96393,0 28.4265,1.8425 58.70092,0 113.66785,0 157.30879,-3.9048 66.32347,-5.5735 98.46887,-20.7965 102.33407,-45.4887 1.8801,-16.9312 -7.5992,-30.2961 -30.4599,-41.6145 -24.53,-13.2059 -77.61815,-18.9483 -126.84109,-28.4181 -36.01052,-5.7522 -66.33888,-9.4796 -91.00047,-15.0542 -79.50491,-20.9875 -161.06615,-41.7842 -257.66374,-34.1781 -15.19144,1.8614 -30.26655,1.8614 -45.47343,5.5911 -71.92085,13.3649 -143.98831,30.4592 -219.77467,51.2473 l -9.4547,1.8596 111.84326,159.1944 c 18.91727,-3.904 39.72913,-7.6152 60.52522,-9.4788 26.54799,-1.8577 51.25593,-1.8577 73.95386,1.8633 30.25898,5.7292 107.88506,20.8034 181.82347,36.0189 75.97175,17.0847 149.69387,30.3046 176.28063,34.0149 17.09299,2.0157 32.29198,2.0157 47.35954,2.0157 37.88149,-3.8954 75.77842,-24.7081 111.79692,-43.6318 11.3256,-7.616 22.6979,-11.3428 34.1859,-18.9803 l 329.5382,-178.104 c 37.8815,-22.6603 37.8815,-41.6163 32.2845,-51.0795 v 0"
       style="fill:#007dc7;fill-opacity:1;fill-rule:evenodd;stroke:none"
       id="path32"
       inkscape:connector-curvature="0" />
    <path
       d="M 406.2222,-642.28749 C 90.3774,-426.61273 -70.6576,-27.73104 33.9576,362.60664 c 132.3825,494.1776 640.34295,787.44896 1134.5111,655.01176 403.8106,-108.18446 673.3951,-467.03996 686.3294,-864.29666 -55.8904,326.0039 -295.2065,606.0763 -635.6602,697.2827 C 752.7186,975.60254 273.3743,698.83414 148.3763,232.42422 60.6295,-95.15913 171.0592,-429.1777 406.2222,-642.28749 v 0"
       style="fill:#007dc7;fill-opacity:1;fill-rule:evenodd;stroke:none"
       id="path20"
       inkscape:connector-curvature="0" />
  </g>
</svg>
